<svg width="940" height="559" viewBox="0 0 940 559" fill="none" xmlns="http://www.w3.org/2000/svg">
<g filter="url(#filter0_d)">
<rect x="26" y="72" width="880" height="131" rx="20" fill="white"/>
<rect x="28.5" y="74.5" width="875" height="126" rx="17.5" stroke="#E84393" stroke-width="5"/>
</g>
<path d="M89.6133 122V154H94.207V130.828H94.5039L103.941 153.953H107.754L117.191 130.844H117.488V154H122.082V122H116.223L106.035 146.875H105.66L95.4727 122H89.6133ZM135.711 154.531C139.68 154.531 141.914 152.516 142.805 150.719H142.992V154H147.555V138.063C147.555 131.078 142.055 129.688 138.242 129.688C133.898 129.688 129.898 131.437 128.336 135.812L132.727 136.812C133.414 135.109 135.164 133.469 138.305 133.469C141.32 133.469 142.867 135.047 142.867 137.766V137.875C142.867 139.578 141.117 139.547 136.805 140.047C132.258 140.578 127.602 141.766 127.602 147.219C127.602 151.938 131.148 154.531 135.711 154.531ZM136.727 150.781C134.086 150.781 132.18 149.594 132.18 147.281C132.18 144.781 134.398 143.891 137.102 143.531C138.617 143.328 142.211 142.922 142.883 142.25V145.344C142.883 148.187 140.617 150.781 136.727 150.781ZM153.777 154H158.449V139.344C158.449 136.203 160.871 133.937 164.184 133.937C165.152 133.937 166.246 134.109 166.621 134.219V129.75C166.152 129.688 165.23 129.641 164.637 129.641C161.824 129.641 159.418 131.234 158.543 133.812H158.293V130H153.777V154ZM170.664 154H175.336V145.484L177.664 143.156L185.82 154H191.555L181.18 140.297L190.898 130H185.305L175.742 140.156H175.336V122H170.664V154ZM204.512 154.484C209.746 154.484 213.449 151.906 214.512 148L210.09 147.203C209.246 149.469 207.215 150.625 204.559 150.625C200.559 150.625 197.871 148.031 197.746 143.406H214.809V141.75C214.809 133.078 209.621 129.688 204.184 129.688C197.496 129.688 193.09 134.781 193.09 142.156C193.09 149.609 197.434 154.484 204.512 154.484ZM197.762 139.906C197.949 136.5 200.418 133.547 204.215 133.547C207.84 133.547 210.215 136.234 210.23 139.906H197.762ZM231.195 130H226.273V124.25H221.602V130H218.086V133.75H221.602V147.922C221.586 152.281 224.914 154.391 228.602 154.313C230.086 154.297 231.086 154.016 231.633 153.812L230.789 149.953C230.477 150.016 229.898 150.156 229.148 150.156C227.633 150.156 226.273 149.656 226.273 146.953V133.75H231.195V130ZM236.363 154H241.035V130H236.363V154ZM238.723 126.297C240.332 126.297 241.676 125.047 241.676 123.516C241.676 121.984 240.332 120.719 238.723 120.719C237.098 120.719 235.77 121.984 235.77 123.516C235.77 125.047 237.098 126.297 238.723 126.297ZM251.992 139.75C251.992 135.922 254.336 133.734 257.586 133.734C260.758 133.734 262.68 135.812 262.68 139.297V154H267.352V138.734C267.352 132.797 264.086 129.688 259.18 129.688C255.57 129.688 253.211 131.359 252.102 133.906H251.805V130H247.32V154H251.992V139.75ZM283.68 163.453C289.789 163.453 294.508 160.656 294.508 154.531V130H289.93V133.891H289.586C288.758 132.406 287.102 129.688 282.633 129.688C276.836 129.688 272.57 134.266 272.57 141.906C272.57 149.562 276.93 153.641 282.602 153.641C287.008 153.641 288.711 151.156 289.555 149.625H289.852V154.344C289.852 158.047 287.273 159.688 283.727 159.688C279.836 159.688 278.32 157.734 277.492 156.406L273.477 158.063C274.742 160.953 277.945 163.453 283.68 163.453ZM283.633 149.766C279.461 149.766 277.289 146.562 277.289 141.844C277.289 137.234 279.414 133.656 283.633 133.656C287.711 133.656 289.898 136.984 289.898 141.844C289.898 146.797 287.664 149.766 283.633 149.766Z" fill="#888888"/>
<g filter="url(#filter1_d)">
<rect x="26" y="233" width="880" height="131" rx="20" fill="white"/>
</g>
<path d="M89.6133 315H109.863V310.844H94.4414V301.047H108.629V296.906H94.4414V287.156H109.676V283H89.6133V315ZM120.422 300.75C120.422 296.922 122.766 294.734 126.016 294.734C129.188 294.734 131.109 296.812 131.109 300.297V315H135.781V299.734C135.781 293.797 132.516 290.688 127.609 290.688C124 290.688 121.641 292.359 120.531 294.906H120.234V291H115.75V315H120.422V300.75ZM152.109 324.453C158.219 324.453 162.938 321.656 162.938 315.531V291H158.359V294.891H158.016C157.188 293.406 155.531 290.688 151.062 290.688C145.266 290.688 141 295.266 141 302.906C141 310.562 145.359 314.641 151.031 314.641C155.438 314.641 157.141 312.156 157.984 310.625H158.281V315.344C158.281 319.047 155.703 320.688 152.156 320.688C148.266 320.688 146.75 318.734 145.922 317.406L141.906 319.063C143.172 321.953 146.375 324.453 152.109 324.453ZM152.063 310.766C147.891 310.766 145.719 307.562 145.719 302.844C145.719 298.234 147.844 294.656 152.063 294.656C156.141 294.656 158.328 297.984 158.328 302.844C158.328 307.797 156.094 310.766 152.063 310.766ZM169.203 315H173.875V291H169.203V315ZM171.562 287.297C173.172 287.297 174.516 286.047 174.516 284.516C174.516 282.984 173.172 281.719 171.562 281.719C169.938 281.719 168.609 282.984 168.609 284.516C168.609 286.047 169.938 287.297 171.562 287.297ZM184.832 300.75C184.832 296.922 187.176 294.734 190.426 294.734C193.598 294.734 195.52 296.812 195.52 300.297V315H200.191V299.734C200.191 293.797 196.926 290.688 192.02 290.688C188.41 290.688 186.051 292.359 184.941 294.906H184.645V291H180.16V315H184.832V300.75ZM216.801 315.484C222.035 315.484 225.738 312.906 226.801 309L222.379 308.203C221.535 310.469 219.504 311.625 216.848 311.625C212.848 311.625 210.16 309.031 210.035 304.406H227.098V302.75C227.098 294.078 221.91 290.688 216.473 290.688C209.785 290.688 205.379 295.781 205.379 303.156C205.379 310.609 209.723 315.484 216.801 315.484ZM210.051 300.906C210.238 297.5 212.707 294.547 216.504 294.547C220.129 294.547 222.504 297.234 222.52 300.906H210.051ZM242.625 315.484C247.859 315.484 251.562 312.906 252.625 309L248.203 308.203C247.359 310.469 245.328 311.625 242.672 311.625C238.672 311.625 235.984 309.031 235.859 304.406H252.922V302.75C252.922 294.078 247.734 290.688 242.297 290.688C235.609 290.688 231.203 295.781 231.203 303.156C231.203 310.609 235.547 315.484 242.625 315.484ZM235.875 300.906C236.063 297.5 238.531 294.547 242.328 294.547C245.953 294.547 248.328 297.234 248.344 300.906H235.875ZM258.105 315H262.777V300.344C262.777 297.203 265.199 294.937 268.512 294.937C269.48 294.937 270.574 295.109 270.949 295.219V290.75C270.48 290.688 269.559 290.641 268.965 290.641C266.152 290.641 263.746 292.234 262.871 294.812H262.621V291H258.105V315ZM274.992 315H279.664V291H274.992V315ZM277.352 287.297C278.961 287.297 280.305 286.047 280.305 284.516C280.305 282.984 278.961 281.719 277.352 281.719C275.727 281.719 274.398 282.984 274.398 284.516C274.398 286.047 275.727 287.297 277.352 287.297ZM290.621 300.75C290.621 296.922 292.965 294.734 296.215 294.734C299.387 294.734 301.309 296.812 301.309 300.297V315H305.98V299.734C305.98 293.797 302.715 290.688 297.809 290.688C294.199 290.688 291.84 292.359 290.73 294.906H290.434V291H285.949V315H290.621V300.75ZM322.309 324.453C328.418 324.453 333.137 321.656 333.137 315.531V291H328.559V294.891H328.215C327.387 293.406 325.73 290.688 321.262 290.688C315.465 290.688 311.199 295.266 311.199 302.906C311.199 310.562 315.559 314.641 321.23 314.641C325.637 314.641 327.34 312.156 328.184 310.625H328.48V315.344C328.48 319.047 325.902 320.688 322.355 320.688C318.465 320.688 316.949 318.734 316.121 317.406L312.105 319.063C313.371 321.953 316.574 324.453 322.309 324.453ZM322.262 310.766C318.09 310.766 315.918 307.562 315.918 302.844C315.918 298.234 318.043 294.656 322.262 294.656C326.34 294.656 328.527 297.984 328.527 302.844C328.527 307.797 326.293 310.766 322.262 310.766Z" fill="#888888"/>
<g filter="url(#filter2_d)">
<rect x="26" y="394" width="880" height="131" rx="20" fill="white"/>
</g>
<path d="M89.6133 476H94.4414V464.75H101.004C108.426 464.75 112.098 460.266 112.098 454.359C112.098 448.469 108.457 444 101.02 444H89.6133V476ZM94.4414 460.656V448.141H100.504C105.285 448.141 107.238 450.734 107.238 454.359C107.238 457.984 105.285 460.656 100.566 460.656H94.4414ZM117.383 476H122.055V461.344C122.055 458.203 124.477 455.937 127.789 455.937C128.758 455.937 129.852 456.109 130.227 456.219V451.75C129.758 451.688 128.836 451.641 128.242 451.641C125.43 451.641 123.023 453.234 122.148 455.812H121.898V452H117.383V476ZM143.52 476.484C150.285 476.484 154.707 471.531 154.707 464.109C154.707 456.641 150.285 451.688 143.52 451.688C136.754 451.688 132.332 456.641 132.332 464.109C132.332 471.531 136.754 476.484 143.52 476.484ZM143.535 472.562C139.113 472.562 137.051 468.703 137.051 464.094C137.051 459.5 139.113 455.594 143.535 455.594C147.926 455.594 149.988 459.5 149.988 464.094C149.988 468.703 147.926 472.562 143.535 472.562ZM168.906 476.469C173.281 476.469 175 473.797 175.844 472.266H176.234V476H180.797V444H176.125V455.891H175.844C175 454.406 173.406 451.688 168.937 451.688C163.141 451.688 158.875 456.266 158.875 464.047C158.875 471.812 163.078 476.469 168.906 476.469ZM169.938 472.484C165.766 472.484 163.594 468.812 163.594 464C163.594 459.234 165.719 455.656 169.938 455.656C174.016 455.656 176.203 458.984 176.203 464C176.203 469.047 173.969 472.484 169.938 472.484ZM202.668 466.047C202.684 470.125 199.652 472.062 197.027 472.062C194.137 472.062 192.137 469.969 192.137 466.703V452H187.465V467.266C187.465 473.219 190.73 476.313 195.34 476.313C198.949 476.313 201.402 474.406 202.512 471.844H202.762V476H207.355V452H202.668V466.047ZM223.742 476.484C229.414 476.484 233.086 473.078 233.602 468.406H229.055C228.461 471 226.445 472.531 223.773 472.531C219.82 472.531 217.273 469.234 217.273 464C217.273 458.859 219.867 455.625 223.773 455.625C226.742 455.625 228.555 457.5 229.055 459.75H233.602C233.102 454.906 229.148 451.688 223.695 451.688C216.93 451.688 212.555 456.781 212.555 464.109C212.555 471.344 216.773 476.484 223.742 476.484ZM249.801 452H244.879V446.25H240.207V452H236.691V455.75H240.207V469.922C240.191 474.281 243.52 476.391 247.207 476.313C248.691 476.297 249.691 476.016 250.238 475.812L249.395 471.953C249.082 472.016 248.504 472.156 247.754 472.156C246.238 472.156 244.879 471.656 244.879 468.953V455.75H249.801V452Z" fill="#888888"/>
<path d="M33.8675 34H38.4165L43.5249 16.1396H43.7237L48.8196 34H53.3686L60.5526 8.54545H55.5934L51.0071 27.2635H50.7834L45.8739 8.54545H41.3622L36.4652 27.2511H36.229L31.6428 8.54545H26.6836L33.8675 34ZM68.0503 22.8139C68.0503 20.0547 69.7655 18.4638 72.1768 18.4638C74.5383 18.4638 75.9303 19.9677 75.9303 22.5405V34H80.4296V21.8445C80.4296 17.2333 77.8195 14.6605 73.8547 14.6605C70.9214 14.6605 69.0571 15.9904 68.1746 18.1531H67.9509V8.54545H63.551V34H68.0503V22.8139ZM90.5095 34.3853C93.5049 34.3853 95.2947 32.9808 96.115 31.3775H96.2641V34H100.589V21.223C100.589 16.1768 96.4754 14.6605 92.8337 14.6605C88.8192 14.6605 85.7368 16.4503 84.7425 19.9304L88.9434 20.527C89.3909 19.2219 90.6586 18.1033 92.8586 18.1033C94.9466 18.1033 96.0901 19.1722 96.0901 21.049V21.1236C96.0901 22.4162 94.7354 22.4783 91.3671 22.8388C87.6633 23.2365 84.121 24.3427 84.121 28.6431C84.121 32.3967 86.8678 34.3853 90.5095 34.3853ZM91.6778 31.0792C89.801 31.0792 88.4587 30.2216 88.4587 28.5685C88.4587 26.8409 89.9626 26.12 91.9761 25.8342C93.1569 25.6726 95.5184 25.3743 96.1025 24.902V27.1516C96.1025 29.277 94.3873 31.0792 91.6778 31.0792ZM114.647 14.9091H110.881V10.3352H106.381V14.9091H103.672V18.3892H106.381V29.0036C106.356 32.5955 108.967 34.3604 112.347 34.261C113.627 34.2237 114.51 33.9751 114.995 33.8136L114.236 30.2962C113.988 30.3583 113.478 30.4702 112.919 30.4702C111.788 30.4702 110.881 30.0724 110.881 28.2578V18.3892H114.647V14.9091ZM127.091 34H131.59V14.9091H127.091V34ZM129.353 12.1996C130.782 12.1996 131.951 11.1058 131.951 9.76349C131.951 8.40874 130.782 7.31499 129.353 7.31499C127.911 7.31499 126.743 8.40874 126.743 9.76349C126.743 11.1058 127.911 12.1996 129.353 12.1996ZM151.306 19.9553C150.684 16.7237 148.099 14.6605 143.625 14.6605C139.026 14.6605 135.894 16.9226 135.906 20.4524C135.894 23.2365 137.609 25.076 141.276 25.8342L144.532 26.5178C146.285 26.9031 147.105 27.6115 147.105 28.6928C147.105 29.9979 145.688 30.9798 143.55 30.9798C141.487 30.9798 140.145 30.0849 139.759 28.3697L135.372 28.7923C135.931 32.2972 138.877 34.3729 143.563 34.3729C148.335 34.3729 151.704 31.8995 151.716 28.2827C151.704 25.5607 149.951 23.8952 146.347 23.1122L143.09 22.4162C141.151 21.9812 140.381 21.31 140.393 20.2038C140.381 18.9112 141.81 18.0163 143.687 18.0163C145.763 18.0163 146.856 19.1474 147.204 20.4027L151.306 19.9553ZM166.904 41.1218C170.409 41.1218 172.435 39.3072 173.516 36.3118L181.185 14.9339L176.375 14.9091L171.963 29.3267H171.764L167.364 14.9091H162.591L169.514 34.3977L169.129 35.4293C168.271 37.5423 166.979 37.7038 165.015 37.1445L163.971 40.6371C164.58 40.8981 165.674 41.1218 166.904 41.1218ZM191.986 34.3729C197.579 34.3729 201.134 30.4329 201.134 24.5291C201.134 18.6129 197.579 14.6605 191.986 14.6605C186.393 14.6605 182.838 18.6129 182.838 24.5291C182.838 30.4329 186.393 34.3729 191.986 34.3729ZM192.011 30.7685C188.916 30.7685 187.4 28.0092 187.4 24.5167C187.4 21.0241 188.916 18.2276 192.011 18.2276C195.056 18.2276 196.572 21.0241 196.572 24.5167C196.572 28.0092 195.056 30.7685 192.011 30.7685ZM217.12 25.9709C217.12 28.8793 215.045 30.321 213.056 30.321C210.893 30.321 209.452 28.7923 209.452 26.3686V14.9091H204.952V27.0646C204.952 31.6509 207.562 34.2486 211.316 34.2486C214.175 34.2486 216.188 32.7447 217.058 30.6069H217.257V34H221.62V14.9091H217.12V25.9709ZM226.246 34H230.746V22.7766C230.746 20.353 232.573 18.6378 235.046 18.6378C235.804 18.6378 236.749 18.7745 237.134 18.8988V14.7599C236.724 14.6854 236.016 14.6357 235.518 14.6357C233.331 14.6357 231.504 15.8786 230.808 18.0909H230.609V14.9091H226.246V34ZM248.805 41.1591H253.304V30.9922H253.491C254.199 32.3842 255.678 34.3356 258.959 34.3356C263.459 34.3356 266.827 30.7685 266.827 24.4794C266.827 18.1158 263.359 14.6605 258.947 14.6605C255.579 14.6605 254.174 16.6864 253.491 18.0661H253.23V14.9091H248.805V41.1591ZM253.217 24.4545C253.217 20.7507 254.808 18.3519 257.704 18.3519C260.699 18.3519 262.241 20.8999 262.241 24.4545C262.241 28.0341 260.675 30.6442 257.704 30.6442C254.833 30.6442 253.217 28.1584 253.217 24.4545ZM270.68 34H275.179V22.7766C275.179 20.353 277.006 18.6378 279.48 18.6378C280.238 18.6378 281.182 18.7745 281.568 18.8988V14.7599C281.158 14.6854 280.449 14.6357 279.952 14.6357C277.764 14.6357 275.937 15.8786 275.241 18.0909H275.043V14.9091H270.68V34ZM284.557 34H289.056V14.9091H284.557V34ZM286.819 12.1996C288.248 12.1996 289.417 11.1058 289.417 9.76349C289.417 8.40874 288.248 7.31499 286.819 7.31499C285.377 7.31499 284.209 8.40874 284.209 9.76349C284.209 11.1058 285.377 12.1996 286.819 12.1996ZM293.683 34H298.182V22.3913C298.182 20.0423 299.748 18.4513 301.687 18.4513C303.589 18.4513 304.894 19.7315 304.894 21.6953V34H309.306V22.093C309.306 19.9428 310.586 18.4513 312.761 18.4513C314.576 18.4513 316.018 19.5202 316.018 21.8817V34H320.529V21.1857C320.529 16.9226 318.069 14.6605 314.564 14.6605C311.792 14.6605 309.679 16.0277 308.834 18.1531H308.635C307.902 15.9904 306.05 14.6605 303.477 14.6605C300.917 14.6605 299.002 15.978 298.207 18.1531H297.983V14.9091H293.683V34ZM330.588 34.3853C333.583 34.3853 335.373 32.9808 336.193 31.3775H336.342V34H340.668V21.223C340.668 16.1768 336.554 14.6605 332.912 14.6605C328.897 14.6605 325.815 16.4503 324.821 19.9304L329.022 20.527C329.469 19.2219 330.737 18.1033 332.937 18.1033C335.025 18.1033 336.168 19.1722 336.168 21.049V21.1236C336.168 22.4162 334.813 22.4783 331.445 22.8388C327.741 23.2365 324.199 24.3427 324.199 28.6431C324.199 32.3967 326.946 34.3853 330.588 34.3853ZM331.756 31.0792C329.879 31.0792 328.537 30.2216 328.537 28.5685C328.537 26.8409 330.041 26.12 332.054 25.8342C333.235 25.6726 335.597 25.3743 336.181 24.902V27.1516C336.181 29.277 334.465 31.0792 331.756 31.0792ZM345.192 34H349.691V22.7766C349.691 20.353 351.518 18.6378 353.991 18.6378C354.75 18.6378 355.694 18.7745 356.079 18.8988V14.7599C355.669 14.6854 354.961 14.6357 354.464 14.6357C352.276 14.6357 350.449 15.8786 349.753 18.0909H349.554V14.9091H345.192V34ZM362.446 41.1218C365.951 41.1218 367.977 39.3072 369.058 36.3118L376.727 14.9339L371.917 14.9091L367.505 29.3267H367.306L362.906 14.9091H358.133L365.056 34.3977L364.671 35.4293C363.813 37.5423 362.521 37.7038 360.557 37.1445L359.513 40.6371C360.122 40.8981 361.216 41.1218 362.446 41.1218ZM388.532 34H393.031V22.7766C393.031 20.353 394.858 18.6378 397.331 18.6378C398.089 18.6378 399.034 18.7745 399.419 18.8988V14.7599C399.009 14.6854 398.301 14.6357 397.804 14.6357C395.616 14.6357 393.789 15.8786 393.093 18.0909H392.894V14.9091H388.532V34ZM409.95 34.3729C415.543 34.3729 419.097 30.4329 419.097 24.5291C419.097 18.6129 415.543 14.6605 409.95 14.6605C404.357 14.6605 400.802 18.6129 400.802 24.5291C400.802 30.4329 404.357 34.3729 409.95 34.3729ZM409.975 30.7685C406.88 30.7685 405.363 28.0092 405.363 24.5167C405.363 21.0241 406.88 18.2276 409.975 18.2276C413.02 18.2276 414.536 21.0241 414.536 24.5167C414.536 28.0092 413.02 30.7685 409.975 30.7685ZM427.416 8.54545H422.916V34H427.416V8.54545ZM440.494 34.3729C444.944 34.3729 448.001 32.1978 448.797 28.8793L444.596 28.407C443.987 30.0227 442.495 30.8679 440.556 30.8679C437.648 30.8679 435.721 28.9538 435.684 25.685H448.983V24.3054C448.983 17.6062 444.956 14.6605 440.258 14.6605C434.789 14.6605 431.222 18.6751 431.222 24.5664C431.222 30.5572 434.739 34.3729 440.494 34.3729ZM435.696 22.6523C435.833 20.2163 437.635 18.1655 440.32 18.1655C442.905 18.1655 444.645 20.0547 444.67 22.6523H435.696ZM466.965 34.3853C469.96 34.3853 471.75 32.9808 472.57 31.3775H472.719V34H477.044V21.223C477.044 16.1768 472.93 14.6605 469.289 14.6605C465.274 14.6605 462.192 16.4503 461.198 19.9304L465.399 20.527C465.846 19.2219 467.114 18.1033 469.314 18.1033C471.402 18.1033 472.545 19.1722 472.545 21.049V21.1236C472.545 22.4162 471.19 22.4783 467.822 22.8388C464.118 23.2365 460.576 24.3427 460.576 28.6431C460.576 32.3967 463.323 34.3853 466.965 34.3853ZM468.133 31.0792C466.256 31.0792 464.914 30.2216 464.914 28.5685C464.914 26.8409 466.418 26.12 468.431 25.8342C469.612 25.6726 471.973 25.3743 472.558 24.902V27.1516C472.558 29.277 470.842 31.0792 468.133 31.0792ZM491.102 14.9091H487.336V10.3352H482.836V14.9091H480.127V18.3892H482.836V29.0036C482.812 32.5955 485.422 34.3604 488.802 34.261C490.082 34.2237 490.965 33.9751 491.45 33.8136L490.691 30.2962C490.443 30.3583 489.933 30.4702 489.374 30.4702C488.243 30.4702 487.336 30.0724 487.336 28.2578V18.3892H491.102V14.9091ZM506.343 41.1218C509.848 41.1218 511.874 39.3072 512.955 36.3118L520.624 14.9339L515.814 14.9091L511.401 29.3267H511.202L506.803 14.9091H502.03L508.953 34.3977L508.567 35.4293C507.71 37.5423 506.417 37.7038 504.453 37.1445L503.409 40.6371C504.018 40.8981 505.112 41.1218 506.343 41.1218ZM531.424 34.3729C537.017 34.3729 540.572 30.4329 540.572 24.5291C540.572 18.6129 537.017 14.6605 531.424 14.6605C525.831 14.6605 522.277 18.6129 522.277 24.5291C522.277 30.4329 525.831 34.3729 531.424 34.3729ZM531.449 30.7685C528.354 30.7685 526.838 28.0092 526.838 24.5167C526.838 21.0241 528.354 18.2276 531.449 18.2276C534.494 18.2276 536.011 21.0241 536.011 24.5167C536.011 28.0092 534.494 30.7685 531.449 30.7685ZM556.559 25.9709C556.559 28.8793 554.483 30.321 552.495 30.321C550.332 30.321 548.89 28.7923 548.89 26.3686V14.9091H544.391V27.0646C544.391 31.6509 547.001 34.2486 550.755 34.2486C553.613 34.2486 555.627 32.7447 556.497 30.6069H556.696V34H561.058V14.9091H556.559V25.9709ZM565.685 34H570.184V22.7766C570.184 20.353 572.011 18.6378 574.485 18.6378C575.243 18.6378 576.187 18.7745 576.573 18.8988V14.7599C576.162 14.6854 575.454 14.6357 574.957 14.6357C572.769 14.6357 570.942 15.8786 570.246 18.0909H570.047V14.9091H565.685V34ZM596.571 34.3729C601.368 34.3729 604.426 31.5266 604.749 27.4748H600.449C600.063 29.5256 598.584 30.7063 596.608 30.7063C593.799 30.7063 591.985 28.3572 591.985 24.4545C591.985 20.6016 593.836 18.2898 596.608 18.2898C598.771 18.2898 600.101 19.6818 600.449 21.5213H604.749C604.438 17.3825 601.207 14.6605 596.546 14.6605C590.953 14.6605 587.423 18.6999 587.423 24.5291C587.423 30.3086 590.866 34.3729 596.571 34.3729ZM616.771 34.3729C622.364 34.3729 625.919 30.4329 625.919 24.5291C625.919 18.6129 622.364 14.6605 616.771 14.6605C611.178 14.6605 607.623 18.6129 607.623 24.5291C607.623 30.4329 611.178 34.3729 616.771 34.3729ZM616.796 30.7685C613.701 30.7685 612.185 28.0092 612.185 24.5167C612.185 21.0241 613.701 18.2276 616.796 18.2276C619.841 18.2276 621.357 21.0241 621.357 24.5167C621.357 28.0092 619.841 30.7685 616.796 30.7685ZM629.738 34H634.237V22.3913C634.237 20.0423 635.803 18.4513 637.742 18.4513C639.643 18.4513 640.949 19.7315 640.949 21.6953V34H645.361V22.093C645.361 19.9428 646.641 18.4513 648.816 18.4513C650.631 18.4513 652.072 19.5202 652.072 21.8817V34H656.584V21.1857C656.584 16.9226 654.123 14.6605 650.618 14.6605C647.847 14.6605 645.734 16.0277 644.888 18.1531H644.69C643.956 15.9904 642.104 14.6605 639.532 14.6605C636.971 14.6605 635.057 15.978 634.262 18.1531H634.038V14.9091H629.738V34ZM661.149 41.1591H665.648V30.9922H665.834C666.543 32.3842 668.022 34.3356 671.303 34.3356C675.802 34.3356 679.171 30.7685 679.171 24.4794C679.171 18.1158 675.703 14.6605 671.291 14.6605C667.922 14.6605 666.518 16.6864 665.834 18.0661H665.573V14.9091H661.149V41.1591ZM665.561 24.4545C665.561 20.7507 667.152 18.3519 670.048 18.3519C673.043 18.3519 674.584 20.8999 674.584 24.4545C674.584 28.0341 673.018 30.6442 670.048 30.6442C667.177 30.6442 665.561 28.1584 665.561 24.4545ZM688.517 34.3853C691.513 34.3853 693.302 32.9808 694.123 31.3775H694.272V34H698.597V21.223C698.597 16.1768 694.483 14.6605 690.842 14.6605C686.827 14.6605 683.745 16.4503 682.75 19.9304L686.951 20.527C687.399 19.2219 688.666 18.1033 690.866 18.1033C692.954 18.1033 694.098 19.1722 694.098 21.049V21.1236C694.098 22.4162 692.743 22.4783 689.375 22.8388C685.671 23.2365 682.129 24.3427 682.129 28.6431C682.129 32.3967 684.876 34.3853 688.517 34.3853ZM689.686 31.0792C687.809 31.0792 686.467 30.2216 686.467 28.5685C686.467 26.8409 687.97 26.12 689.984 25.8342C691.165 25.6726 693.526 25.3743 694.11 24.902V27.1516C694.11 29.277 692.395 31.0792 689.686 31.0792ZM707.621 22.8139C707.621 20.0547 709.286 18.4638 711.66 18.4638C713.984 18.4638 715.376 19.9925 715.376 22.5405V34H719.876V21.8445C719.888 17.2706 717.278 14.6605 713.338 14.6605C710.479 14.6605 708.516 16.0277 707.646 18.1531H707.422V14.9091H703.121V34H707.621V22.8139ZM726.562 41.1218C730.067 41.1218 732.093 39.3072 733.175 36.3118L740.843 14.9339L736.033 14.9091L731.621 29.3267H731.422L727.022 14.9091H722.25L729.172 34.3977L728.787 35.4293C727.93 37.5423 726.637 37.7038 724.673 37.1445L723.629 40.6371C724.238 40.8981 725.332 41.1218 726.562 41.1218ZM748.267 26.5178H752.405V26.1946C752.43 23.5597 753.288 22.354 755.314 21.1112C757.601 19.744 759.03 17.8796 759.03 15.0334C759.03 10.8324 755.761 8.19744 751.013 8.19744C746.663 8.19744 743.133 10.6087 743.009 15.3317H747.434C747.546 12.995 749.236 11.8764 750.988 11.8764C752.89 11.8764 754.419 13.1442 754.419 15.0955C754.419 16.8356 753.263 18.0288 751.759 18.9734C749.559 20.3406 748.291 21.7202 748.267 26.1946V26.5178ZM750.442 34.2734C751.908 34.2734 753.164 33.0554 753.176 31.5391C753.164 30.0476 751.908 28.8295 750.442 28.8295C748.925 28.8295 747.695 30.0476 747.707 31.5391C747.695 33.0554 748.925 34.2734 750.442 34.2734Z" fill="black"/>
<defs>
<filter id="filter0_d" x="0" y="46" width="940" height="191" filterUnits="userSpaceOnUse" color-interpolation-filters="sRGB">
<feFlood flood-opacity="0" result="BackgroundImageFix"/>
<feColorMatrix in="SourceAlpha" type="matrix" values="0 0 0 0 0 0 0 0 0 0 0 0 0 0 0 0 0 0 127 0"/>
<feOffset dx="4" dy="4"/>
<feGaussianBlur stdDeviation="15"/>
<feColorMatrix type="matrix" values="0 0 0 0 0 0 0 0 0 0 0 0 0 0 0 0 0 0 0.16 0"/>
<feBlend mode="normal" in2="BackgroundImageFix" result="effect1_dropShadow"/>
<feBlend mode="normal" in="SourceGraphic" in2="effect1_dropShadow" result="shape"/>
</filter>
<filter id="filter1_d" x="0" y="207" width="940" height="191" filterUnits="userSpaceOnUse" color-interpolation-filters="sRGB">
<feFlood flood-opacity="0" result="BackgroundImageFix"/>
<feColorMatrix in="SourceAlpha" type="matrix" values="0 0 0 0 0 0 0 0 0 0 0 0 0 0 0 0 0 0 127 0"/>
<feOffset dx="4" dy="4"/>
<feGaussianBlur stdDeviation="15"/>
<feColorMatrix type="matrix" values="0 0 0 0 0 0 0 0 0 0 0 0 0 0 0 0 0 0 0.16 0"/>
<feBlend mode="normal" in2="BackgroundImageFix" result="effect1_dropShadow"/>
<feBlend mode="normal" in="SourceGraphic" in2="effect1_dropShadow" result="shape"/>
</filter>
<filter id="filter2_d" x="0" y="368" width="940" height="191" filterUnits="userSpaceOnUse" color-interpolation-filters="sRGB">
<feFlood flood-opacity="0" result="BackgroundImageFix"/>
<feColorMatrix in="SourceAlpha" type="matrix" values="0 0 0 0 0 0 0 0 0 0 0 0 0 0 0 0 0 0 127 0"/>
<feOffset dx="4" dy="4"/>
<feGaussianBlur stdDeviation="15"/>
<feColorMatrix type="matrix" values="0 0 0 0 0 0 0 0 0 0 0 0 0 0 0 0 0 0 0.16 0"/>
<feBlend mode="normal" in2="BackgroundImageFix" result="effect1_dropShadow"/>
<feBlend mode="normal" in="SourceGraphic" in2="effect1_dropShadow" result="shape"/>
</filter>
</defs>
</svg>
