<svg width="940" height="618" viewBox="0 0 940 618" fill="none" xmlns="http://www.w3.org/2000/svg">
<g filter="url(#filter0_d)">
<rect x="26" y="222" width="880" height="166" rx="20" fill="white"/>
</g>
<path d="M92.7599 268.182V283.523C92.7493 285.824 91.6839 287.049 89.7876 287.049C88.0192 287.049 86.8366 285.973 86.8047 284.205H82.8736C82.8736 288.232 85.8139 290.298 89.6385 290.298C93.8466 290.298 96.6697 287.741 96.6804 283.523V268.182H92.7599ZM105.507 290.33C108.074 290.33 109.608 289.126 110.311 287.752H110.439V290H114.147V279.048C114.147 274.723 110.62 273.423 107.499 273.423C104.058 273.423 101.416 274.957 100.564 277.94L104.164 278.452C104.548 277.333 105.635 276.374 107.52 276.374C109.31 276.374 110.29 277.29 110.29 278.899V278.963C110.29 280.071 109.129 280.124 106.242 280.433C103.067 280.774 100.031 281.722 100.031 285.408C100.031 288.626 102.385 290.33 105.507 290.33ZM106.508 287.496C104.9 287.496 103.749 286.761 103.749 285.344C103.749 283.864 105.038 283.246 106.764 283.001C107.776 282.862 109.8 282.607 110.301 282.202V284.13C110.301 285.952 108.831 287.496 106.508 287.496ZM121.881 280.412C121.881 278.047 123.309 276.683 125.343 276.683C127.336 276.683 128.529 277.994 128.529 280.178V290H132.385V279.581C132.396 275.661 130.159 273.423 126.782 273.423C124.331 273.423 122.648 274.595 121.902 276.417H121.711V273.636H118.025V290H121.881V280.412ZM143.55 290.32C147.364 290.32 149.985 288.455 150.667 285.611L147.066 285.206C146.544 286.591 145.265 287.315 143.603 287.315C141.11 287.315 139.459 285.675 139.427 282.873H150.826V281.69C150.826 275.948 147.375 273.423 143.348 273.423C138.66 273.423 135.603 276.864 135.603 281.914C135.603 287.049 138.618 290.32 143.55 290.32ZM139.438 280.273C139.555 278.185 141.1 276.428 143.401 276.428C145.617 276.428 147.108 278.047 147.13 280.273H139.438ZM169.094 290C175.742 290 179.684 285.888 179.684 279.07C179.684 272.273 175.742 268.182 169.243 268.182H161.701V290H169.094ZM165.653 286.58V271.602H169.02C173.452 271.602 175.763 274.073 175.763 279.07C175.763 284.087 173.452 286.58 168.903 286.58H165.653ZM190.406 290.32C195.2 290.32 198.247 286.942 198.247 281.882C198.247 276.811 195.2 273.423 190.406 273.423C185.612 273.423 182.566 276.811 182.566 281.882C182.566 286.942 185.612 290.32 190.406 290.32ZM190.428 287.23C187.775 287.23 186.475 284.865 186.475 281.871C186.475 278.878 187.775 276.481 190.428 276.481C193.038 276.481 194.338 278.878 194.338 281.871C194.338 284.865 193.038 287.23 190.428 287.23ZM208.765 290.32C212.579 290.32 215.2 288.455 215.881 285.611L212.281 285.206C211.759 286.591 210.48 287.315 208.818 287.315C206.325 287.315 204.674 285.675 204.642 282.873H216.041V281.69C216.041 275.948 212.589 273.423 208.562 273.423C203.875 273.423 200.817 276.864 200.817 281.914C200.817 287.049 203.832 290.32 208.765 290.32ZM204.653 280.273C204.77 278.185 206.315 276.428 208.616 276.428C210.832 276.428 212.323 278.047 212.344 280.273H204.653Z" fill="black"/>
<path d="M85.5156 342H105.766V337.844H90.3438V328.047H104.531V323.906H90.3438V314.156H105.578V310H85.5156V342ZM116.324 327.75C116.324 323.922 118.668 321.734 121.918 321.734C125.09 321.734 127.012 323.812 127.012 327.297V342H131.684V326.734C131.684 320.797 128.418 317.688 123.512 317.688C119.902 317.688 117.543 319.359 116.434 321.906H116.137V318H111.652V342H116.324V327.75ZM148.012 351.453C154.121 351.453 158.84 348.656 158.84 342.531V318H154.262V321.891H153.918C153.09 320.406 151.434 317.688 146.965 317.688C141.168 317.688 136.902 322.266 136.902 329.906C136.902 337.562 141.262 341.641 146.934 341.641C151.34 341.641 153.043 339.156 153.887 337.625H154.184V342.344C154.184 346.047 151.605 347.688 148.059 347.688C144.168 347.688 142.652 345.734 141.824 344.406L137.809 346.063C139.074 348.953 142.277 351.453 148.012 351.453ZM147.965 337.766C143.793 337.766 141.621 334.562 141.621 329.844C141.621 325.234 143.746 321.656 147.965 321.656C152.043 321.656 154.23 324.984 154.23 329.844C154.23 334.797 151.996 337.766 147.965 337.766ZM165.105 342H169.777V318H165.105V342ZM167.465 314.297C169.074 314.297 170.418 313.047 170.418 311.516C170.418 309.984 169.074 308.719 167.465 308.719C165.84 308.719 164.512 309.984 164.512 311.516C164.512 313.047 165.84 314.297 167.465 314.297ZM180.734 327.75C180.734 323.922 183.078 321.734 186.328 321.734C189.5 321.734 191.422 323.812 191.422 327.297V342H196.094V326.734C196.094 320.797 192.828 317.688 187.922 317.688C184.313 317.688 181.953 319.359 180.844 321.906H180.547V318H176.063V342H180.734V327.75ZM212.703 342.484C217.938 342.484 221.641 339.906 222.703 336L218.281 335.203C217.438 337.469 215.406 338.625 212.75 338.625C208.75 338.625 206.063 336.031 205.938 331.406H223V329.75C223 321.078 217.813 317.688 212.375 317.688C205.688 317.688 201.281 322.781 201.281 330.156C201.281 337.609 205.625 342.484 212.703 342.484ZM205.953 327.906C206.141 324.5 208.609 321.547 212.406 321.547C216.031 321.547 218.406 324.234 218.422 327.906H205.953ZM238.527 342.484C243.762 342.484 247.465 339.906 248.527 336L244.105 335.203C243.262 337.469 241.23 338.625 238.574 338.625C234.574 338.625 231.887 336.031 231.762 331.406H248.824V329.75C248.824 321.078 243.637 317.688 238.199 317.688C231.512 317.688 227.105 322.781 227.105 330.156C227.105 337.609 231.449 342.484 238.527 342.484ZM231.777 327.906C231.965 324.5 234.434 321.547 238.23 321.547C241.855 321.547 244.23 324.234 244.246 327.906H231.777ZM254.008 342H258.68V327.344C258.68 324.203 261.102 321.937 264.414 321.937C265.383 321.937 266.477 322.109 266.852 322.219V317.75C266.383 317.688 265.461 317.641 264.867 317.641C262.055 317.641 259.648 319.234 258.773 321.812H258.523V318H254.008V342ZM270.895 342H275.566V318H270.895V342ZM273.254 314.297C274.863 314.297 276.207 313.047 276.207 311.516C276.207 309.984 274.863 308.719 273.254 308.719C271.629 308.719 270.301 309.984 270.301 311.516C270.301 313.047 271.629 314.297 273.254 314.297ZM286.523 327.75C286.523 323.922 288.867 321.734 292.117 321.734C295.289 321.734 297.211 323.812 297.211 327.297V342H301.883V326.734C301.883 320.797 298.617 317.688 293.711 317.688C290.102 317.688 287.742 319.359 286.633 321.906H286.336V318H281.852V342H286.523V327.75ZM318.211 351.453C324.32 351.453 329.039 348.656 329.039 342.531V318H324.461V321.891H324.117C323.289 320.406 321.633 317.688 317.164 317.688C311.367 317.688 307.102 322.266 307.102 329.906C307.102 337.562 311.461 341.641 317.133 341.641C321.539 341.641 323.242 339.156 324.086 337.625H324.383V342.344C324.383 346.047 321.805 347.688 318.258 347.688C314.367 347.688 312.852 345.734 312.023 344.406L308.008 346.063C309.273 348.953 312.477 351.453 318.211 351.453ZM318.164 337.766C313.992 337.766 311.82 334.562 311.82 329.844C311.82 325.234 313.945 321.656 318.164 321.656C322.242 321.656 324.43 324.984 324.43 329.844C324.43 334.797 322.195 337.766 318.164 337.766Z" fill="#888888"/>
<g filter="url(#filter1_d)">
<rect x="26" y="26" width="880" height="166" rx="20" fill="white"/>
</g>
<path d="M96.0092 78.1797H99.8125C99.7379 74.4936 96.5952 71.8835 91.9503 71.8835C87.3693 71.8835 83.9283 74.4616 83.9389 78.3182C83.9389 81.4503 86.1655 83.2507 89.7557 84.1776L92.2379 84.8168C94.5923 85.4134 96.1477 86.1484 96.1584 87.8423C96.1477 89.7067 94.3793 90.9531 91.8011 90.9531C89.3295 90.9531 87.4119 89.8452 87.2521 87.5547H83.3636C83.5234 91.8906 86.7514 94.3303 91.8331 94.3303C97.0639 94.3303 100.1 91.7202 100.111 87.8743C100.1 84.0923 96.9787 82.3665 93.6974 81.5888L91.652 81.0774C89.8622 80.6513 87.9233 79.8949 87.9446 78.0732C87.9553 76.4325 89.4254 75.2287 91.897 75.2287C94.2514 75.2287 95.8068 76.326 96.0092 78.1797ZM108.173 94.3303C110.74 94.3303 112.274 93.1264 112.977 91.7521H113.105V94H116.813V83.0483C116.813 78.723 113.286 77.4233 110.165 77.4233C106.724 77.4233 104.082 78.9574 103.23 81.9403L106.83 82.4517C107.214 81.3331 108.301 80.3743 110.186 80.3743C111.976 80.3743 112.956 81.2905 112.956 82.8991V82.9631C112.956 84.071 111.795 84.1243 108.908 84.4332C105.733 84.7741 102.697 85.7223 102.697 89.4084C102.697 92.6257 105.051 94.3303 108.173 94.3303ZM109.174 91.4964C107.566 91.4964 106.415 90.7614 106.415 89.3445C106.415 87.8636 107.704 87.2457 109.43 87.0007C110.442 86.8622 112.466 86.6065 112.967 86.2017V88.13C112.967 89.9517 111.497 91.4964 109.174 91.4964ZM120.691 94H124.547V84.0497C124.547 82.0362 125.889 80.6726 127.551 80.6726C129.181 80.6726 130.3 81.7699 130.3 83.4531V94H134.082V83.794C134.082 81.951 135.179 80.6726 137.044 80.6726C138.599 80.6726 139.835 81.5888 139.835 83.6129V94H143.702V83.0163C143.702 79.3622 141.593 77.4233 138.588 77.4233C136.213 77.4233 134.401 78.5952 133.677 80.4169H133.507C132.878 78.5632 131.291 77.4233 129.085 77.4233C126.891 77.4233 125.25 78.5526 124.568 80.4169H124.377V77.6364H120.691V94ZM167.083 78.1797H170.887C170.812 74.4936 167.669 71.8835 163.025 71.8835C158.444 71.8835 155.002 74.4616 155.013 78.3182C155.013 81.4503 157.24 83.2507 160.83 84.1776L163.312 84.8168C165.667 85.4134 167.222 86.1484 167.233 87.8423C167.222 89.7067 165.453 90.9531 162.875 90.9531C160.404 90.9531 158.486 89.8452 158.326 87.5547H154.438C154.598 91.8906 157.826 94.3303 162.907 94.3303C168.138 94.3303 171.174 91.7202 171.185 87.8743C171.174 84.0923 168.053 82.3665 164.772 81.5888L162.726 81.0774C160.936 80.6513 158.998 79.8949 159.019 78.0732C159.029 76.4325 160.5 75.2287 162.971 75.2287C165.326 75.2287 166.881 76.326 167.083 78.1797ZM174.538 94H178.395V84.0497C178.395 82.0362 179.737 80.6726 181.399 80.6726C183.029 80.6726 184.148 81.7699 184.148 83.4531V94H187.93V83.794C187.93 81.951 189.027 80.6726 190.891 80.6726C192.447 80.6726 193.682 81.5888 193.682 83.6129V94H197.55V83.0163C197.55 79.3622 195.44 77.4233 192.436 77.4233C190.06 77.4233 188.249 78.5952 187.525 80.4169H187.354C186.726 78.5632 185.138 77.4233 182.933 77.4233C180.738 77.4233 179.098 78.5526 178.416 80.4169H178.224V77.6364H174.538V94ZM201.462 94H205.319V77.6364H201.462V94ZM203.401 75.3139C204.626 75.3139 205.627 74.3764 205.627 73.2259C205.627 72.0646 204.626 71.1271 203.401 71.1271C202.165 71.1271 201.164 72.0646 201.164 73.2259C201.164 74.3764 202.165 75.3139 203.401 75.3139ZM217.455 77.6364H214.227V73.7159H210.371V77.6364H208.048V80.6193H210.371V89.7173C210.35 92.7962 212.587 94.3089 215.485 94.2237C216.582 94.1918 217.338 93.9787 217.754 93.8402L217.104 90.8253C216.891 90.8786 216.454 90.9744 215.975 90.9744C215.005 90.9744 214.227 90.6335 214.227 89.0781V80.6193H217.455V77.6364ZM224.889 84.4119C224.889 82.0469 226.359 80.6832 228.426 80.6832C230.45 80.6832 231.643 81.9723 231.643 84.1776V94H235.5V83.581C235.5 79.6286 233.262 77.4233 229.864 77.4233C227.35 77.4233 225.752 78.5632 224.995 80.4169H224.804V72.1818H221.032V94H224.889V84.4119Z" fill="black"/>
<path d="M85.5156 146H90.3438V134.75H96.9062C104.328 134.75 108 130.266 108 124.359C108 118.469 104.359 114 96.9219 114H85.5156V146ZM90.3438 130.656V118.141H96.4063C101.188 118.141 103.141 120.734 103.141 124.359C103.141 127.984 101.188 130.656 96.4688 130.656H90.3438ZM113.285 146H117.957V131.344C117.957 128.203 120.379 125.937 123.691 125.937C124.66 125.937 125.754 126.109 126.129 126.219V121.75C125.66 121.688 124.738 121.641 124.145 121.641C121.332 121.641 118.926 123.234 118.051 125.812H117.801V122H113.285V146ZM139.422 146.484C146.188 146.484 150.609 141.531 150.609 134.109C150.609 126.641 146.188 121.688 139.422 121.688C132.656 121.688 128.234 126.641 128.234 134.109C128.234 141.531 132.656 146.484 139.422 146.484ZM139.438 142.562C135.016 142.562 132.953 138.703 132.953 134.094C132.953 129.5 135.016 125.594 139.438 125.594C143.828 125.594 145.891 129.5 145.891 134.094C145.891 138.703 143.828 142.562 139.438 142.562ZM164.809 146.469C169.184 146.469 170.902 143.797 171.746 142.266H172.137V146H176.699V114H172.027V125.891H171.746C170.902 124.406 169.309 121.688 164.84 121.688C159.043 121.688 154.777 126.266 154.777 134.047C154.777 141.812 158.98 146.469 164.809 146.469ZM165.84 142.484C161.668 142.484 159.496 138.812 159.496 134C159.496 129.234 161.621 125.656 165.84 125.656C169.918 125.656 172.105 128.984 172.105 134C172.105 139.047 169.871 142.484 165.84 142.484ZM198.57 136.047C198.586 140.125 195.555 142.062 192.93 142.062C190.039 142.062 188.039 139.969 188.039 136.703V122H183.367V137.266C183.367 143.219 186.633 146.313 191.242 146.313C194.852 146.313 197.305 144.406 198.414 141.844H198.664V146H203.258V122H198.57V136.047ZM219.645 146.484C225.316 146.484 228.988 143.078 229.504 138.406H224.957C224.363 141 222.348 142.531 219.676 142.531C215.723 142.531 213.176 139.234 213.176 134C213.176 128.859 215.77 125.625 219.676 125.625C222.645 125.625 224.457 127.5 224.957 129.75H229.504C229.004 124.906 225.051 121.688 219.598 121.688C212.832 121.688 208.457 126.781 208.457 134.109C208.457 141.344 212.676 146.484 219.645 146.484ZM245.703 122H240.781V116.25H236.109V122H232.594V125.75H236.109V139.922C236.094 144.281 239.422 146.391 243.109 146.313C244.594 146.297 245.594 146.016 246.141 145.812L245.297 141.953C244.984 142.016 244.406 142.156 243.656 142.156C242.141 142.156 240.781 141.656 240.781 138.953V125.75H245.703V122Z" fill="#888888"/>
<g filter="url(#filter2_d)">
<rect x="26" y="418" width="880" height="166" rx="20" fill="white"/>
</g>
<path d="M96.0092 470.18H99.8125C99.7379 466.494 96.5952 463.884 91.9503 463.884C87.3693 463.884 83.9283 466.462 83.9389 470.318C83.9389 473.45 86.1655 475.251 89.7557 476.178L92.2379 476.817C94.5923 477.413 96.1477 478.148 96.1584 479.842C96.1477 481.707 94.3793 482.953 91.8011 482.953C89.3295 482.953 87.4119 481.845 87.2521 479.555H83.3636C83.5234 483.891 86.7514 486.33 91.8331 486.33C97.0639 486.33 100.1 483.72 100.111 479.874C100.1 476.092 96.9787 474.366 93.6974 473.589L91.652 473.077C89.8622 472.651 87.9233 471.895 87.9446 470.073C87.9553 468.433 89.4254 467.229 91.897 467.229C94.2514 467.229 95.8068 468.326 96.0092 470.18ZM108.173 486.33C110.74 486.33 112.274 485.126 112.977 483.752H113.105V486H116.813V475.048C116.813 470.723 113.286 469.423 110.165 469.423C106.724 469.423 104.082 470.957 103.23 473.94L106.83 474.452C107.214 473.333 108.301 472.374 110.186 472.374C111.976 472.374 112.956 473.29 112.956 474.899V474.963C112.956 476.071 111.795 476.124 108.908 476.433C105.733 476.774 102.697 477.722 102.697 481.408C102.697 484.626 105.051 486.33 108.173 486.33ZM109.174 483.496C107.566 483.496 106.415 482.761 106.415 481.344C106.415 479.864 107.704 479.246 109.43 479.001C110.442 478.862 112.466 478.607 112.967 478.202V480.13C112.967 481.952 111.497 483.496 109.174 483.496ZM120.691 486H124.547V476.05C124.547 474.036 125.889 472.673 127.551 472.673C129.181 472.673 130.3 473.77 130.3 475.453V486H134.082V475.794C134.082 473.951 135.179 472.673 137.044 472.673C138.599 472.673 139.835 473.589 139.835 475.613V486H143.702V475.016C143.702 471.362 141.593 469.423 138.588 469.423C136.213 469.423 134.401 470.595 133.677 472.417H133.507C132.878 470.563 131.291 469.423 129.085 469.423C126.891 469.423 125.25 470.553 124.568 472.417H124.377V469.636H120.691V486ZM152.323 486.33C154.891 486.33 156.425 485.126 157.128 483.752H157.256V486H160.963V475.048C160.963 470.723 157.437 469.423 154.315 469.423C150.874 469.423 148.232 470.957 147.38 473.94L150.981 474.452C151.364 473.333 152.451 472.374 154.337 472.374C156.126 472.374 157.107 473.29 157.107 474.899V474.963C157.107 476.071 155.945 476.124 153.058 476.433C149.884 476.774 146.847 477.722 146.847 481.408C146.847 484.626 149.202 486.33 152.323 486.33ZM153.325 483.496C151.716 483.496 150.565 482.761 150.565 481.344C150.565 479.864 151.854 479.246 153.58 479.001C154.592 478.862 156.616 478.607 157.117 478.202V480.13C157.117 481.952 155.647 483.496 153.325 483.496ZM168.697 476.412C168.697 474.047 170.125 472.683 172.16 472.683C174.152 472.683 175.345 473.994 175.345 476.178V486H179.202V475.581C179.212 471.661 176.975 469.423 173.598 469.423C171.148 469.423 169.464 470.595 168.719 472.417H168.527V469.636H164.841V486H168.697V476.412ZM191.293 469.636H188.065V465.716H184.209V469.636H181.886V472.619H184.209V481.717C184.188 484.796 186.425 486.309 189.322 486.224C190.42 486.192 191.176 485.979 191.592 485.84L190.942 482.825C190.729 482.879 190.292 482.974 189.812 482.974C188.843 482.974 188.065 482.634 188.065 481.078V472.619H191.293V469.636ZM198.727 476.412C198.727 474.047 200.197 472.683 202.264 472.683C204.288 472.683 205.481 473.972 205.481 476.178V486H209.338V475.581C209.338 471.629 207.1 469.423 203.702 469.423C201.188 469.423 199.59 470.563 198.833 472.417H198.642V464.182H194.87V486H198.727V476.412ZM217.977 486.33C220.545 486.33 222.079 485.126 222.782 483.752H222.91V486H226.617V475.048C226.617 470.723 223.091 469.423 219.97 469.423C216.529 469.423 213.887 470.957 213.034 473.94L216.635 474.452C217.019 473.333 218.105 472.374 219.991 472.374C221.781 472.374 222.761 473.29 222.761 474.899V474.963C222.761 476.071 221.6 476.124 218.713 476.433C215.538 476.774 212.502 477.722 212.502 481.408C212.502 484.626 214.856 486.33 217.977 486.33ZM218.979 483.496C217.37 483.496 216.22 482.761 216.22 481.344C216.22 479.864 217.509 479.246 219.235 479.001C220.247 478.862 222.271 478.607 222.771 478.202V480.13C222.771 481.952 221.301 483.496 218.979 483.496ZM252.724 471.149H256.751C256.079 466.866 252.372 463.884 247.546 463.884C241.836 463.884 237.553 468.081 237.553 475.112C237.553 482.016 241.644 486.298 247.663 486.298C253.064 486.298 256.932 482.825 256.932 477.2V474.58H248.079V477.669H253.107C253.043 480.78 250.966 482.751 247.684 482.751C244.03 482.751 241.527 480.013 241.527 475.07C241.527 470.158 244.073 467.431 247.599 467.431C250.231 467.431 252.02 468.837 252.724 471.149ZM267.721 486.32C272.515 486.32 275.562 482.942 275.562 477.882C275.562 472.811 272.515 469.423 267.721 469.423C262.927 469.423 259.88 472.811 259.88 477.882C259.88 482.942 262.927 486.32 267.721 486.32ZM267.742 483.23C265.089 483.23 263.79 480.865 263.79 477.871C263.79 474.878 265.089 472.481 267.742 472.481C270.352 472.481 271.652 474.878 271.652 477.871C271.652 480.865 270.352 483.23 267.742 483.23ZM278.835 486H282.692V476.05C282.692 474.036 284.034 472.673 285.696 472.673C287.326 472.673 288.444 473.77 288.444 475.453V486H292.226V475.794C292.226 473.951 293.324 472.673 295.188 472.673C296.743 472.673 297.979 473.589 297.979 475.613V486H301.846V475.016C301.846 471.362 299.737 469.423 296.733 469.423C294.357 469.423 292.546 470.595 291.822 472.417H291.651C291.023 470.563 289.435 469.423 287.23 469.423C285.035 469.423 283.395 470.553 282.713 472.417H282.521V469.636H278.835V486ZM313.003 486.32C316.817 486.32 319.438 484.455 320.12 481.611L316.519 481.206C315.997 482.591 314.718 483.315 313.056 483.315C310.564 483.315 308.912 481.675 308.88 478.873H320.279V477.69C320.279 471.948 316.828 469.423 312.801 469.423C308.113 469.423 305.056 472.864 305.056 477.914C305.056 483.049 308.071 486.32 313.003 486.32ZM308.891 476.273C309.008 474.185 310.553 472.428 312.854 472.428C315.07 472.428 316.561 474.047 316.583 476.273H308.891ZM323.329 486H336.763V482.804H328.453V482.665L336.486 472.268V469.636H323.606V472.832H331.767V472.971L323.329 483.55V486Z" fill="black"/>
<path d="M85.5156 506V538H90.1094V514.828H90.4063L99.8438 537.953H103.656L113.094 514.844H113.391V538H117.984V506H112.125L101.938 530.875H101.563L91.375 506H85.5156ZM131.613 538.531C135.582 538.531 137.816 536.516 138.707 534.719H138.895V538H143.457V522.063C143.457 515.078 137.957 513.688 134.145 513.688C129.801 513.688 125.801 515.437 124.238 519.812L128.629 520.812C129.316 519.109 131.066 517.469 134.207 517.469C137.223 517.469 138.77 519.047 138.77 521.766V521.875C138.77 523.578 137.02 523.547 132.707 524.047C128.16 524.578 123.504 525.766 123.504 531.219C123.504 535.938 127.051 538.531 131.613 538.531ZM132.629 534.781C129.988 534.781 128.082 533.594 128.082 531.281C128.082 528.781 130.301 527.891 133.004 527.531C134.52 527.328 138.113 526.922 138.785 526.25V529.344C138.785 532.187 136.52 534.781 132.629 534.781ZM149.68 538H154.352V523.344C154.352 520.203 156.773 517.937 160.086 517.937C161.055 517.937 162.148 518.109 162.523 518.219V513.75C162.055 513.688 161.133 513.641 160.539 513.641C157.727 513.641 155.32 515.234 154.445 517.812H154.195V514H149.68V538ZM166.566 538H171.238V529.484L173.566 527.156L181.723 538H187.457L177.082 524.297L186.801 514H181.207L171.645 524.156H171.238V506H166.566V538ZM200.414 538.484C205.648 538.484 209.352 535.906 210.414 532L205.992 531.203C205.148 533.469 203.117 534.625 200.461 534.625C196.461 534.625 193.773 532.031 193.648 527.406H210.711V525.75C210.711 517.078 205.523 513.688 200.086 513.688C193.398 513.688 188.992 518.781 188.992 526.156C188.992 533.609 193.336 538.484 200.414 538.484ZM193.664 523.906C193.852 520.5 196.32 517.547 200.117 517.547C203.742 517.547 206.117 520.234 206.133 523.906H193.664ZM227.098 514H222.176V508.25H217.504V514H213.988V517.75H217.504V531.922C217.488 536.281 220.816 538.391 224.504 538.313C225.988 538.297 226.988 538.016 227.535 537.812L226.691 533.953C226.379 534.016 225.801 534.156 225.051 534.156C223.535 534.156 222.176 533.656 222.176 530.953V517.75H227.098V514ZM232.266 538H236.938V514H232.266V538ZM234.625 510.297C236.234 510.297 237.578 509.047 237.578 507.516C237.578 505.984 236.234 504.719 234.625 504.719C233 504.719 231.672 505.984 231.672 507.516C231.672 509.047 233 510.297 234.625 510.297ZM247.895 523.75C247.895 519.922 250.238 517.734 253.488 517.734C256.66 517.734 258.582 519.812 258.582 523.297V538H263.254V522.734C263.254 516.797 259.988 513.688 255.082 513.688C251.473 513.688 249.113 515.359 248.004 517.906H247.707V514H243.223V538H247.895V523.75ZM279.582 547.453C285.691 547.453 290.41 544.656 290.41 538.531V514H285.832V517.891H285.488C284.66 516.406 283.004 513.688 278.535 513.688C272.738 513.688 268.473 518.266 268.473 525.906C268.473 533.562 272.832 537.641 278.504 537.641C282.91 537.641 284.613 535.156 285.457 533.625H285.754V538.344C285.754 542.047 283.176 543.688 279.629 543.688C275.738 543.688 274.223 541.734 273.395 540.406L269.379 542.063C270.645 544.953 273.848 547.453 279.582 547.453ZM279.535 533.766C275.363 533.766 273.191 530.562 273.191 525.844C273.191 521.234 275.316 517.656 279.535 517.656C283.613 517.656 285.801 520.984 285.801 525.844C285.801 530.797 283.566 533.766 279.535 533.766Z" fill="#888888"/>
<defs>
<filter id="filter0_d" x="0" y="196" width="940" height="226" filterUnits="userSpaceOnUse" color-interpolation-filters="sRGB">
<feFlood flood-opacity="0" result="BackgroundImageFix"/>
<feColorMatrix in="SourceAlpha" type="matrix" values="0 0 0 0 0 0 0 0 0 0 0 0 0 0 0 0 0 0 127 0"/>
<feOffset dx="4" dy="4"/>
<feGaussianBlur stdDeviation="15"/>
<feColorMatrix type="matrix" values="0 0 0 0 0 0 0 0 0 0 0 0 0 0 0 0 0 0 0.16 0"/>
<feBlend mode="normal" in2="BackgroundImageFix" result="effect1_dropShadow"/>
<feBlend mode="normal" in="SourceGraphic" in2="effect1_dropShadow" result="shape"/>
</filter>
<filter id="filter1_d" x="0" y="0" width="940" height="226" filterUnits="userSpaceOnUse" color-interpolation-filters="sRGB">
<feFlood flood-opacity="0" result="BackgroundImageFix"/>
<feColorMatrix in="SourceAlpha" type="matrix" values="0 0 0 0 0 0 0 0 0 0 0 0 0 0 0 0 0 0 127 0"/>
<feOffset dx="4" dy="4"/>
<feGaussianBlur stdDeviation="15"/>
<feColorMatrix type="matrix" values="0 0 0 0 0 0 0 0 0 0 0 0 0 0 0 0 0 0 0.16 0"/>
<feBlend mode="normal" in2="BackgroundImageFix" result="effect1_dropShadow"/>
<feBlend mode="normal" in="SourceGraphic" in2="effect1_dropShadow" result="shape"/>
</filter>
<filter id="filter2_d" x="0" y="392" width="940" height="226" filterUnits="userSpaceOnUse" color-interpolation-filters="sRGB">
<feFlood flood-opacity="0" result="BackgroundImageFix"/>
<feColorMatrix in="SourceAlpha" type="matrix" values="0 0 0 0 0 0 0 0 0 0 0 0 0 0 0 0 0 0 127 0"/>
<feOffset dx="4" dy="4"/>
<feGaussianBlur stdDeviation="15"/>
<feColorMatrix type="matrix" values="0 0 0 0 0 0 0 0 0 0 0 0 0 0 0 0 0 0 0.16 0"/>
<feBlend mode="normal" in2="BackgroundImageFix" result="effect1_dropShadow"/>
<feBlend mode="normal" in="SourceGraphic" in2="effect1_dropShadow" result="shape"/>
</filter>
</defs>
</svg>
