<svg width="948" height="618" viewBox="0 0 948 618" fill="none" xmlns="http://www.w3.org/2000/svg">
<g filter="url(#filter0_d)">
<rect x="26" y="222" width="429" height="166" rx="20" fill="white"/>
</g>
<path d="M102.827 275.543C102.156 270.696 98.4276 267.884 93.5909 267.884C87.8913 267.884 83.598 272.038 83.598 279.091C83.598 286.133 87.8381 290.298 93.5909 290.298C98.7791 290.298 102.22 286.942 102.827 282.777L98.843 282.756C98.3423 285.312 96.2543 286.751 93.6442 286.751C90.1072 286.751 87.5717 284.098 87.5717 279.091C87.5717 274.169 90.0859 271.431 93.6548 271.431C96.3075 271.431 98.3849 272.933 98.843 275.543H102.827ZM113.414 290.32C118.208 290.32 121.255 286.942 121.255 281.882C121.255 276.811 118.208 273.423 113.414 273.423C108.62 273.423 105.573 276.811 105.573 281.882C105.573 286.942 108.62 290.32 113.414 290.32ZM113.436 287.23C110.783 287.23 109.483 284.865 109.483 281.871C109.483 278.878 110.783 276.481 113.436 276.481C116.046 276.481 117.345 278.878 117.345 281.871C117.345 284.865 116.046 287.23 113.436 287.23ZM134.958 283.118C134.958 285.611 133.179 286.847 131.474 286.847C129.621 286.847 128.385 285.536 128.385 283.459V273.636H124.528V284.055C124.528 287.987 126.766 290.213 129.983 290.213C132.433 290.213 134.159 288.924 134.905 287.092H135.075V290H138.815V273.636H134.958V283.118ZM146.637 280.412C146.637 278.047 148.064 276.683 150.099 276.683C152.091 276.683 153.285 277.994 153.285 280.178V290H157.141V279.581C157.152 275.661 154.915 273.423 151.537 273.423C149.087 273.423 147.404 274.595 146.658 276.417H146.466V273.636H142.78V290H146.637V280.412ZM169.233 273.636H166.005V269.716H162.148V273.636H159.826V276.619H162.148V285.717C162.127 288.796 164.364 290.309 167.262 290.224C168.359 290.192 169.116 289.979 169.531 289.84L168.881 286.825C168.668 286.879 168.231 286.974 167.752 286.974C166.782 286.974 166.005 286.634 166.005 285.078V276.619H169.233V273.636ZM172.458 290H176.315V280.38C176.315 278.303 177.881 276.832 180.001 276.832C180.651 276.832 181.46 276.95 181.79 277.056V273.509C181.439 273.445 180.832 273.402 180.406 273.402C178.531 273.402 176.964 274.467 176.368 276.364H176.197V273.636H172.458V290ZM187.248 296.104C190.252 296.104 191.988 294.549 192.915 291.982L199.488 273.658L195.366 273.636L191.584 285.994H191.413L187.642 273.636H183.551L189.485 290.341L189.155 291.225C188.42 293.036 187.312 293.175 185.628 292.695L184.733 295.689C185.256 295.913 186.193 296.104 187.248 296.104Z" fill="black"/>
<path d="M88.2188 342L91.1563 333.531H103.656L106.578 342H111.703L100.188 310H94.6094L83.0938 342H88.2188ZM92.5625 329.469L97.2813 315.812H97.5313L102.25 329.469H92.5625ZM131.152 332.047C131.168 336.125 128.137 338.062 125.512 338.062C122.621 338.062 120.621 335.969 120.621 332.703V318H115.949V333.266C115.949 339.219 119.215 342.313 123.824 342.313C127.434 342.313 129.887 340.406 130.996 337.844H131.246V342H135.84V318H131.152V332.047ZM160.102 323.859C159.133 320.125 156.211 317.688 151.023 317.688C145.602 317.688 141.758 320.547 141.758 324.797C141.758 328.203 143.82 330.469 148.32 331.469L152.383 332.359C154.695 332.875 155.773 333.906 155.773 335.406C155.773 337.266 153.789 338.719 150.727 338.719C147.93 338.719 146.133 337.516 145.57 335.156L141.055 335.844C141.836 340.094 145.367 342.484 150.758 342.484C156.555 342.484 160.57 339.406 160.57 335.063C160.57 331.672 158.414 329.578 154.008 328.562L150.195 327.687C147.555 327.062 146.414 326.172 146.43 324.547C146.414 322.703 148.414 321.391 151.07 321.391C153.977 321.391 155.32 323 155.867 324.609L160.102 323.859ZM176.91 318H171.988V312.25H167.316V318H163.801V321.75H167.316V335.922C167.301 340.281 170.629 342.391 174.316 342.313C175.801 342.297 176.801 342.016 177.348 341.812L176.504 337.953C176.191 338.016 175.613 338.156 174.863 338.156C173.348 338.156 171.988 337.656 171.988 334.953V321.75H176.91V318ZM182.078 342H186.75V327.344C186.75 324.203 189.172 321.937 192.484 321.937C193.453 321.937 194.547 322.109 194.922 322.219V317.75C194.453 317.688 193.531 317.641 192.937 317.641C190.125 317.641 187.719 319.234 186.844 321.812H186.594V318H182.078V342ZM198.965 342H203.637V318H198.965V342ZM201.324 314.297C202.934 314.297 204.277 313.047 204.277 311.516C204.277 309.984 202.934 308.719 201.324 308.719C199.699 308.719 198.371 309.984 198.371 311.516C198.371 313.047 199.699 314.297 201.324 314.297ZM216.906 342.531C220.875 342.531 223.109 340.516 224 338.719H224.188V342H228.75V326.063C228.75 319.078 223.25 317.688 219.438 317.688C215.094 317.688 211.094 319.437 209.531 323.812L213.922 324.812C214.609 323.109 216.359 321.469 219.5 321.469C222.516 321.469 224.063 323.047 224.063 325.766V325.875C224.063 327.578 222.313 327.547 218 328.047C213.453 328.578 208.797 329.766 208.797 335.219C208.797 339.938 212.344 342.531 216.906 342.531ZM217.922 338.781C215.281 338.781 213.375 337.594 213.375 335.281C213.375 332.781 215.594 331.891 218.297 331.531C219.813 331.328 223.406 330.922 224.078 330.25V333.344C224.078 336.187 221.813 338.781 217.922 338.781Z" fill="#888888"/>
<g filter="url(#filter1_d)">
<rect x="26" y="26" width="429" height="166" rx="20" fill="white"/>
</g>
<path d="M102.082 72.1818H98.1506V87.054H97.9588L87.6889 72.1818H84.152V94H88.1044V79.1385H88.2855L98.5661 94H102.082V72.1818ZM110.927 94.3303C113.494 94.3303 115.028 93.1264 115.731 91.7521H115.859V94H119.567V83.0483C119.567 78.723 116.04 77.4233 112.919 77.4233C109.478 77.4233 106.836 78.9574 105.983 81.9403L109.584 82.4517C109.968 81.3331 111.055 80.3743 112.94 80.3743C114.73 80.3743 115.71 81.2905 115.71 82.8991V82.9631C115.71 84.071 114.549 84.1243 111.662 84.4332C108.487 84.7741 105.451 85.7223 105.451 89.4084C105.451 92.6257 107.805 94.3303 110.927 94.3303ZM111.928 91.4964C110.319 91.4964 109.169 90.7614 109.169 89.3445C109.169 87.8636 110.458 87.2457 112.184 87.0007C113.196 86.8622 115.22 86.6065 115.721 86.2017V88.13C115.721 89.9517 114.251 91.4964 111.928 91.4964ZM123.444 94H127.301V84.0497C127.301 82.0362 128.643 80.6726 130.305 80.6726C131.935 80.6726 133.054 81.7699 133.054 83.4531V94H136.836V83.794C136.836 81.951 137.933 80.6726 139.797 80.6726C141.353 80.6726 142.589 81.5888 142.589 83.6129V94H146.456V83.0163C146.456 79.3622 144.346 77.4233 141.342 77.4233C138.966 77.4233 137.155 78.5952 136.431 80.4169H136.26C135.632 78.5632 134.045 77.4233 131.839 77.4233C129.645 77.4233 128.004 78.5526 127.322 80.4169H127.131V77.6364H123.444V94ZM157.613 94.3196C161.426 94.3196 164.047 92.4553 164.729 89.6108L161.128 89.206C160.606 90.5909 159.328 91.3153 157.666 91.3153C155.173 91.3153 153.522 89.6747 153.49 86.8729H164.889V85.6903C164.889 79.9482 161.437 77.4233 157.41 77.4233C152.723 77.4233 149.665 80.8643 149.665 85.9141C149.665 91.049 152.68 94.3196 157.613 94.3196ZM153.5 84.2734C153.618 82.1854 155.162 80.4276 157.463 80.4276C159.679 80.4276 161.171 82.0469 161.192 84.2734H153.5Z" fill="black"/>
<path d="M97.9531 114V136.687C97.9375 140.375 96.2187 142.344 93.1563 142.344C90.3281 142.344 88.3594 140.656 88.3438 138H83.5469C83.5469 143.406 87.6094 146.437 93.0313 146.437C98.9063 146.437 102.75 142.844 102.766 136.687V114H97.9531ZM116.402 146.531C120.371 146.531 122.605 144.516 123.496 142.719H123.684V146H128.246V130.063C128.246 123.078 122.746 121.688 118.934 121.688C114.59 121.688 110.59 123.437 109.027 127.812L113.418 128.812C114.105 127.109 115.855 125.469 118.996 125.469C122.012 125.469 123.559 127.047 123.559 129.766V129.875C123.559 131.578 121.809 131.547 117.496 132.047C112.949 132.578 108.293 133.766 108.293 139.219C108.293 143.938 111.84 146.531 116.402 146.531ZM117.418 142.781C114.777 142.781 112.871 141.594 112.871 139.281C112.871 136.781 115.09 135.891 117.793 135.531C119.309 135.328 122.902 134.922 123.574 134.25V137.344C123.574 140.187 121.309 142.781 117.418 142.781ZM139.141 131.75C139.141 127.922 141.484 125.734 144.734 125.734C147.906 125.734 149.828 127.812 149.828 131.297V146H154.5V130.734C154.5 124.797 151.234 121.688 146.328 121.688C142.719 121.688 140.359 123.359 139.25 125.906H138.953V122H134.469V146H139.141V131.75ZM171.109 146.484C176.344 146.484 180.047 143.906 181.109 140L176.688 139.203C175.844 141.469 173.813 142.625 171.156 142.625C167.156 142.625 164.469 140.031 164.344 135.406H181.406V133.75C181.406 125.078 176.219 121.688 170.781 121.688C164.094 121.688 159.688 126.781 159.688 134.156C159.688 141.609 164.031 146.484 171.109 146.484ZM164.359 131.906C164.547 128.5 167.016 125.547 170.812 125.547C174.438 125.547 176.813 128.234 176.828 131.906H164.359ZM208.969 146C218.719 146 224.359 139.953 224.359 129.953C224.359 120 218.719 114 209.297 114H198.609V146H208.969ZM203.438 141.781V118.219H209C216 118.219 219.609 122.406 219.609 129.953C219.609 137.531 216 141.781 208.703 141.781H203.438ZM240.098 146.484C246.863 146.484 251.285 141.531 251.285 134.109C251.285 126.641 246.863 121.688 240.098 121.688C233.332 121.688 228.91 126.641 228.91 134.109C228.91 141.531 233.332 146.484 240.098 146.484ZM240.113 142.562C235.691 142.562 233.629 138.703 233.629 134.094C233.629 129.5 235.691 125.594 240.113 125.594C244.504 125.594 246.566 129.5 246.566 134.094C246.566 138.703 244.504 142.562 240.113 142.562ZM266.844 146.484C272.078 146.484 275.781 143.906 276.844 140L272.422 139.203C271.578 141.469 269.547 142.625 266.891 142.625C262.891 142.625 260.203 140.031 260.078 135.406H277.141V133.75C277.141 125.078 271.953 121.688 266.516 121.688C259.828 121.688 255.422 126.781 255.422 134.156C255.422 141.609 259.766 146.484 266.844 146.484ZM260.094 131.906C260.281 128.5 262.75 125.547 266.547 125.547C270.172 125.547 272.547 128.234 272.563 131.906H260.094Z" fill="#888888"/>
<g filter="url(#filter2_d)">
<rect x="485" y="222" width="429" height="166" rx="20" fill="white"/>
</g>
<path d="M550.545 290C557.193 290 561.135 285.888 561.135 279.07C561.135 272.273 557.193 268.182 550.695 268.182H543.152V290H550.545ZM547.104 286.58V271.602H550.471C554.903 271.602 557.214 274.073 557.214 279.07C557.214 284.087 554.903 286.58 550.354 286.58H547.104ZM571.964 290.32C575.778 290.32 578.399 288.455 579.081 285.611L575.48 285.206C574.958 286.591 573.679 287.315 572.017 287.315C569.525 287.315 567.873 285.675 567.841 282.873H579.24V281.69C579.24 275.948 575.789 273.423 571.762 273.423C567.074 273.423 564.017 276.864 564.017 281.914C564.017 287.049 567.032 290.32 571.964 290.32ZM567.852 280.273C567.969 278.185 569.514 276.428 571.815 276.428C574.031 276.428 575.522 278.047 575.544 280.273H567.852ZM596.944 273.636H592.842L589.071 285.792H588.9L585.14 273.636H581.028L586.855 290H591.116L596.944 273.636ZM599.612 290H603.469V273.636H599.612V290ZM601.551 271.314C602.776 271.314 603.778 270.376 603.778 269.226C603.778 268.065 602.776 267.127 601.551 267.127C600.316 267.127 599.314 268.065 599.314 269.226C599.314 270.376 600.316 271.314 601.551 271.314ZM614.572 290.32C618.685 290.32 621.305 287.88 621.582 284.407H617.896C617.566 286.165 616.298 287.177 614.604 287.177C612.197 287.177 610.641 285.163 610.641 281.818C610.641 278.516 612.229 276.534 614.604 276.534C616.458 276.534 617.598 277.727 617.896 279.304H621.582C621.316 275.756 618.546 273.423 614.551 273.423C609.757 273.423 606.732 276.886 606.732 281.882C606.732 286.836 609.683 290.32 614.572 290.32ZM631.993 290.32C635.807 290.32 638.428 288.455 639.11 285.611L635.509 285.206C634.987 286.591 633.709 287.315 632.047 287.315C629.554 287.315 627.903 285.675 627.871 282.873H639.27V281.69C639.27 275.948 635.818 273.423 631.791 273.423C627.104 273.423 624.046 276.864 624.046 281.914C624.046 287.049 627.061 290.32 631.993 290.32ZM627.881 280.273C627.998 278.185 629.543 276.428 631.844 276.428C634.06 276.428 635.552 278.047 635.573 280.273H627.881Z" fill="black"/>
<path d="M571.094 320.406C570 313.563 564.641 309.562 557.875 309.562C549.594 309.562 543.484 315.766 543.484 326C543.484 336.234 549.563 342.437 557.875 342.437C564.906 342.437 570.047 338.031 571.094 331.703L566.219 331.688C565.391 335.781 561.953 338.031 557.906 338.031C552.422 338.031 548.281 333.828 548.281 326C548.281 318.234 552.406 313.969 557.922 313.969C562 313.969 565.422 316.266 566.219 320.406H571.094ZM581.168 327.75C581.168 323.922 583.59 321.734 586.918 321.734C590.137 321.734 592.059 323.781 592.059 327.297V342H596.73V326.734C596.73 320.75 593.449 317.688 588.512 317.688C584.777 317.688 582.527 319.312 581.402 321.906H581.105V310H576.496V342H581.168V327.75ZM602.965 342H607.637V327.344C607.637 324.203 610.059 321.937 613.371 321.937C614.34 321.937 615.434 322.109 615.809 322.219V317.75C615.34 317.688 614.418 317.641 613.824 317.641C611.012 317.641 608.605 319.234 607.73 321.812H607.48V318H602.965V342ZM629.102 342.484C635.867 342.484 640.289 337.531 640.289 330.109C640.289 322.641 635.867 317.688 629.102 317.688C622.336 317.688 617.914 322.641 617.914 330.109C617.914 337.531 622.336 342.484 629.102 342.484ZM629.117 338.562C624.695 338.562 622.633 334.703 622.633 330.094C622.633 325.5 624.695 321.594 629.117 321.594C633.508 321.594 635.57 325.5 635.57 330.094C635.57 334.703 633.508 338.562 629.117 338.562ZM645.504 342H650.176V327.203C650.176 323.969 652.441 321.719 655.098 321.719C657.691 321.719 659.488 323.438 659.488 326.047V342H664.145V326.703C664.145 323.812 665.91 321.719 668.957 321.719C671.426 321.719 673.457 323.094 673.457 326.344V342H678.129V325.906C678.129 320.422 675.066 317.688 670.723 317.688C667.27 317.688 664.676 319.344 663.52 321.906H663.27C662.223 319.281 660.02 317.688 656.816 317.688C653.645 317.688 651.285 319.266 650.285 321.906H649.988V318H645.504V342ZM694.734 342.484C699.969 342.484 703.672 339.906 704.734 336L700.313 335.203C699.469 337.469 697.438 338.625 694.781 338.625C690.781 338.625 688.094 336.031 687.969 331.406H705.031V329.75C705.031 321.078 699.844 317.688 694.406 317.688C687.719 317.688 683.312 322.781 683.312 330.156C683.312 337.609 687.656 342.484 694.734 342.484ZM687.984 327.906C688.172 324.5 690.641 321.547 694.437 321.547C698.063 321.547 700.438 324.234 700.453 327.906H687.984ZM731.969 342.484C738.734 342.484 743.156 337.531 743.156 330.109C743.156 322.641 738.734 317.688 731.969 317.688C725.203 317.688 720.781 322.641 720.781 330.109C720.781 337.531 725.203 342.484 731.969 342.484ZM731.984 338.562C727.563 338.562 725.5 334.703 725.5 330.094C725.5 325.5 727.563 321.594 731.984 321.594C736.375 321.594 738.438 325.5 738.438 330.094C738.438 334.703 736.375 338.562 731.984 338.562ZM753.043 327.75C753.043 323.922 755.387 321.734 758.637 321.734C761.809 321.734 763.73 323.812 763.73 327.297V342H768.402V326.734C768.402 320.797 765.137 317.688 760.23 317.688C756.621 317.688 754.262 319.359 753.152 321.906H752.855V318H748.371V342H753.043V327.75ZM786.688 310V342H791.281V318.828H791.578L801.016 341.953H804.828L814.266 318.844H814.563V342H819.156V310H813.297L803.109 334.875H802.734L792.547 310H786.688ZM832.785 342.531C836.754 342.531 838.988 340.516 839.879 338.719H840.066V342H844.629V326.063C844.629 319.078 839.129 317.688 835.316 317.688C830.973 317.688 826.973 319.437 825.41 323.812L829.801 324.812C830.488 323.109 832.238 321.469 835.379 321.469C838.395 321.469 839.941 323.047 839.941 325.766V325.875C839.941 327.578 838.191 327.547 833.879 328.047C829.332 328.578 824.676 329.766 824.676 335.219C824.676 339.938 828.223 342.531 832.785 342.531ZM833.801 338.781C831.16 338.781 829.254 337.594 829.254 335.281C829.254 332.781 831.473 331.891 834.176 331.531C835.691 331.328 839.285 330.922 839.957 330.25V333.344C839.957 336.187 837.691 338.781 833.801 338.781ZM860.961 342.484C866.633 342.484 870.305 339.078 870.82 334.406H866.273C865.68 337 863.664 338.531 860.992 338.531C857.039 338.531 854.492 335.234 854.492 330C854.492 324.859 857.086 321.625 860.992 321.625C863.961 321.625 865.773 323.5 866.273 325.75H870.82C870.32 320.906 866.367 317.688 860.914 317.688C854.148 317.688 849.773 322.781 849.773 330.109C849.773 337.344 853.992 342.484 860.961 342.484Z" fill="#888888"/>
<g filter="url(#filter3_d)">
<rect x="485" y="26" width="429" height="166" rx="20" fill="white"/>
</g>
<path d="M543.152 94H557.428V90.6868H547.104V84.7315H556.607V81.4183H547.104V75.495H557.342V72.1818H543.152V94ZM561.204 94H565.061V84.0497C565.061 82.0362 566.403 80.6726 568.065 80.6726C569.695 80.6726 570.814 81.7699 570.814 83.4531V94H574.596V83.794C574.596 81.951 575.693 80.6726 577.557 80.6726C579.113 80.6726 580.348 81.5888 580.348 83.6129V94H584.216V83.0163C584.216 79.3622 582.106 77.4233 579.102 77.4233C576.726 77.4233 574.915 78.5952 574.191 80.4169H574.02C573.392 78.5632 571.804 77.4233 569.599 77.4233C567.404 77.4233 565.764 78.5526 565.082 80.4169H564.89V77.6364H561.204V94ZM592.837 94.3303C595.404 94.3303 596.938 93.1264 597.642 91.7521H597.769V94H601.477V83.0483C601.477 78.723 597.95 77.4233 594.829 77.4233C591.388 77.4233 588.746 78.9574 587.894 81.9403L591.494 82.4517C591.878 81.3331 592.965 80.3743 594.85 80.3743C596.64 80.3743 597.62 81.2905 597.62 82.8991V82.9631C597.62 84.071 596.459 84.1243 593.572 84.4332C590.397 84.7741 587.361 85.7223 587.361 89.4084C587.361 92.6257 589.715 94.3303 592.837 94.3303ZM593.838 91.4964C592.23 91.4964 591.079 90.7614 591.079 89.3445C591.079 87.8636 592.368 87.2457 594.094 87.0007C595.106 86.8622 597.13 86.6065 597.631 86.2017V88.13C597.631 89.9517 596.161 91.4964 593.838 91.4964ZM605.355 94H609.211V77.6364H605.355V94ZM607.294 75.3139C608.519 75.3139 609.52 74.3764 609.52 73.2259C609.52 72.0646 608.519 71.1271 607.294 71.1271C606.058 71.1271 605.056 72.0646 605.056 73.2259C605.056 74.3764 606.058 75.3139 607.294 75.3139ZM617.033 72.1818H613.177V94H617.033V72.1818Z" fill="black"/>
<path d="M544.141 122V147.5C544.141 149.734 543.219 150.953 541 150.953C540.734 150.953 540.531 150.953 540.25 150.938V154.969H541.156C546.172 155.031 548.813 152.344 548.813 147.531V122H544.141ZM546.453 118.297C548.063 118.297 549.406 117.047 549.406 115.516C549.406 113.984 548.063 112.719 546.453 112.719C544.828 112.719 543.5 113.984 543.5 115.516C543.5 117.047 544.828 118.297 546.453 118.297ZM562.082 146.531C566.051 146.531 568.285 144.516 569.176 142.719H569.363V146H573.926V130.063C573.926 123.078 568.426 121.688 564.613 121.688C560.27 121.688 556.27 123.437 554.707 127.812L559.098 128.812C559.785 127.109 561.535 125.469 564.676 125.469C567.691 125.469 569.238 127.047 569.238 129.766V129.875C569.238 131.578 567.488 131.547 563.176 132.047C558.629 132.578 553.973 133.766 553.973 139.219C553.973 143.938 557.52 146.531 562.082 146.531ZM563.098 142.781C560.457 142.781 558.551 141.594 558.551 139.281C558.551 136.781 560.77 135.891 563.473 135.531C564.988 135.328 568.582 134.922 569.254 134.25V137.344C569.254 140.187 566.988 142.781 563.098 142.781ZM584.82 131.75C584.82 127.922 587.164 125.734 590.414 125.734C593.586 125.734 595.508 127.812 595.508 131.297V146H600.18V130.734C600.18 124.797 596.914 121.688 592.008 121.688C588.398 121.688 586.039 123.359 584.93 125.906H584.633V122H580.148V146H584.82V131.75ZM616.789 146.484C622.023 146.484 625.727 143.906 626.789 140L622.367 139.203C621.523 141.469 619.492 142.625 616.836 142.625C612.836 142.625 610.148 140.031 610.023 135.406H627.086V133.75C627.086 125.078 621.898 121.688 616.461 121.688C609.773 121.688 605.367 126.781 605.367 134.156C605.367 141.609 609.711 146.484 616.789 146.484ZM610.039 131.906C610.227 128.5 612.695 125.547 616.492 125.547C620.117 125.547 622.492 128.234 622.508 131.906H610.039ZM651.535 154.703C655.145 154.703 659.316 153.719 661.254 152.813L660.16 149.391C658.848 149.859 655.238 151 651.738 151C641.223 151 635.582 145.203 635.582 134.828C635.582 124.891 641.16 118.469 651.16 118.469C660.301 118.469 665.754 124.344 665.738 132.281C665.754 139.063 664.879 142.109 662.035 142.109C660.426 142.109 659.535 140.797 659.535 139.156V124.656H655.691V126.406H655.488C655.02 125.031 652.301 123.797 649.035 124.187C644.52 124.719 640.645 128.453 640.645 134.609C640.645 141.031 643.926 145.328 649.191 145.531C652.754 145.687 655.066 144.031 655.801 142.188H655.988C656.363 144.703 659.082 145.812 661.754 145.719C668.426 145.594 669.691 139.031 669.691 132.437C669.691 123.031 663.254 114.844 651.316 114.844C638.801 114.844 631.441 122.484 631.426 134.797C631.441 147.469 638.613 154.703 651.535 154.703ZM650.098 141.703C646.02 141.703 644.613 138.203 644.598 134.422C644.613 130.828 646.629 127.969 650.16 127.969C653.988 127.969 655.707 129.656 655.723 134.406C655.738 139.281 654.16 141.703 650.098 141.703ZM683.836 146.469C688.211 146.469 689.93 143.797 690.773 142.266H691.164V146H695.727V114H691.055V125.891H690.773C689.93 124.406 688.336 121.688 683.867 121.688C678.07 121.688 673.805 126.266 673.805 134.047C673.805 141.812 678.008 146.469 683.836 146.469ZM684.867 142.484C680.695 142.484 678.523 138.812 678.523 134C678.523 129.234 680.648 125.656 684.867 125.656C688.945 125.656 691.133 128.984 691.133 134C691.133 139.047 688.898 142.484 684.867 142.484ZM712.504 146.484C719.27 146.484 723.691 141.531 723.691 134.109C723.691 126.641 719.27 121.688 712.504 121.688C705.738 121.688 701.316 126.641 701.316 134.109C701.316 141.531 705.738 146.484 712.504 146.484ZM712.52 142.562C708.098 142.562 706.035 138.703 706.035 134.094C706.035 129.5 708.098 125.594 712.52 125.594C716.91 125.594 718.973 129.5 718.973 134.094C718.973 138.703 716.91 142.562 712.52 142.562ZM739.25 146.484C744.484 146.484 748.187 143.906 749.25 140L744.828 139.203C743.984 141.469 741.953 142.625 739.297 142.625C735.297 142.625 732.609 140.031 732.484 135.406H749.547V133.75C749.547 125.078 744.359 121.688 738.922 121.688C732.234 121.688 727.828 126.781 727.828 134.156C727.828 141.609 732.172 146.484 739.25 146.484ZM732.5 131.906C732.688 128.5 735.156 125.547 738.953 125.547C742.578 125.547 744.953 128.234 744.969 131.906H732.5ZM757.809 146.297C759.512 146.297 760.934 144.906 760.934 143.172C760.934 141.469 759.512 140.062 757.809 140.062C756.09 140.062 754.684 141.469 754.684 143.172C754.684 144.906 756.09 146.297 757.809 146.297ZM777.301 146.484C782.973 146.484 786.645 143.078 787.16 138.406H782.613C782.02 141 780.004 142.531 777.332 142.531C773.379 142.531 770.832 139.234 770.832 134C770.832 128.859 773.426 125.625 777.332 125.625C780.301 125.625 782.113 127.5 782.613 129.75H787.16C786.66 124.906 782.707 121.688 777.254 121.688C770.488 121.688 766.113 126.781 766.113 134.109C766.113 141.344 770.332 146.484 777.301 146.484ZM802.266 146.484C809.031 146.484 813.453 141.531 813.453 134.109C813.453 126.641 809.031 121.688 802.266 121.688C795.5 121.688 791.078 126.641 791.078 134.109C791.078 141.531 795.5 146.484 802.266 146.484ZM802.281 142.562C797.859 142.562 795.797 138.703 795.797 134.094C795.797 129.5 797.859 125.594 802.281 125.594C806.672 125.594 808.734 129.5 808.734 134.094C808.734 138.703 806.672 142.562 802.281 142.562ZM818.668 146H823.34V131.203C823.34 127.969 825.605 125.719 828.262 125.719C830.855 125.719 832.652 127.438 832.652 130.047V146H837.309V130.703C837.309 127.812 839.074 125.719 842.121 125.719C844.59 125.719 846.621 127.094 846.621 130.344V146H851.293V129.906C851.293 124.422 848.23 121.688 843.887 121.688C840.434 121.688 837.84 123.344 836.684 125.906H836.434C835.387 123.281 833.184 121.688 829.98 121.688C826.809 121.688 824.449 123.266 823.449 125.906H823.152V122H818.668V146Z" fill="#888888"/>
<g filter="url(#filter4_d)">
<rect x="26" y="418" width="429" height="166" rx="20" fill="white"/>
</g>
<path d="M84.152 486H88.1044V478.628H92.2805C97.3196 478.628 100.026 475.602 100.026 471.405C100.026 467.239 97.3516 464.182 92.3338 464.182H84.152V486ZM88.1044 475.379V467.484H91.7266C94.6882 467.484 95.9986 469.082 95.9986 471.405C95.9986 473.727 94.6882 475.379 91.7479 475.379H88.1044ZM107.704 486.33C110.271 486.33 111.806 485.126 112.509 483.752H112.637V486H116.344V475.048C116.344 470.723 112.818 469.423 109.696 469.423C106.255 469.423 103.613 470.957 102.761 473.94L106.362 474.452C106.745 473.333 107.832 472.374 109.718 472.374C111.507 472.374 112.487 473.29 112.487 474.899V474.963C112.487 476.071 111.326 476.124 108.439 476.433C105.264 476.774 102.228 477.722 102.228 481.408C102.228 484.626 104.583 486.33 107.704 486.33ZM108.705 483.496C107.097 483.496 105.946 482.761 105.946 481.344C105.946 479.864 107.235 479.246 108.961 479.001C109.973 478.862 111.997 478.607 112.498 478.202V480.13C112.498 481.952 111.028 483.496 108.705 483.496ZM127.338 492.413C131.759 492.413 135.019 490.389 135.019 486.266V469.636H131.216V472.342H131.003C130.417 471.16 129.192 469.423 126.305 469.423C122.523 469.423 119.551 472.385 119.551 477.765C119.551 483.102 122.523 485.766 126.294 485.766C129.096 485.766 130.406 484.263 131.003 483.06H131.195V486.16C131.195 488.504 129.597 489.494 127.402 489.494C125.08 489.494 124.057 488.397 123.588 487.502L120.115 488.344C120.818 490.57 123.173 492.413 127.338 492.413ZM127.37 482.74C124.824 482.74 123.482 480.759 123.482 477.744C123.482 474.771 124.803 472.587 127.37 472.587C129.852 472.587 131.216 474.643 131.216 477.744C131.216 480.865 129.831 482.74 127.37 482.74ZM146.216 486.32C150.03 486.32 152.651 484.455 153.333 481.611L149.732 481.206C149.21 482.591 147.931 483.315 146.269 483.315C143.776 483.315 142.125 481.675 142.093 478.873H153.492V477.69C153.492 471.948 150.041 469.423 146.014 469.423C141.326 469.423 138.269 472.864 138.269 477.914C138.269 483.049 141.284 486.32 146.216 486.32ZM142.104 476.273C142.221 474.185 143.766 472.428 146.067 472.428C148.283 472.428 149.774 474.047 149.796 476.273H142.104ZM178.131 464.182V478.511C178.131 481.206 175.968 482.772 173.22 482.772C170.482 482.772 168.319 481.206 168.319 478.511V464.182H164.367V478.607C164.367 483.55 168.159 486.33 173.22 486.33C178.259 486.33 182.073 483.55 182.073 478.607V464.182H178.131ZM186.369 486H190.321V478.01H194.348L198.631 486H203.041L198.322 477.349C200.889 476.316 202.242 474.121 202.242 471.16C202.242 466.994 199.558 464.182 194.551 464.182H186.369V486ZM190.321 474.729V467.484H193.943C196.894 467.484 198.215 468.837 198.215 471.16C198.215 473.482 196.894 474.729 193.965 474.729H190.321ZM205.881 486H219.442V482.687H209.833V464.182H205.881V486Z" fill="black"/>
<path d="M97.3281 504.5H93.1563L82.8438 542.812H87.0156L97.3281 504.5ZM108.281 538.531C112.25 538.531 114.484 536.516 115.375 534.719H115.563V538H120.125V522.063C120.125 515.078 114.625 513.688 110.813 513.688C106.469 513.688 102.469 515.437 100.906 519.812L105.297 520.812C105.984 519.109 107.734 517.469 110.875 517.469C113.891 517.469 115.438 519.047 115.438 521.766V521.875C115.438 523.578 113.688 523.547 109.375 524.047C104.828 524.578 100.172 525.766 100.172 531.219C100.172 535.938 103.719 538.531 108.281 538.531ZM109.297 534.781C106.656 534.781 104.75 533.594 104.75 531.281C104.75 528.781 106.969 527.891 109.672 527.531C111.188 527.328 114.781 526.922 115.453 526.25V529.344C115.453 532.187 113.188 534.781 109.297 534.781ZM126.723 538H131.285V534.266H131.676C132.52 535.797 134.238 538.469 138.613 538.469C144.426 538.469 148.645 533.812 148.645 526.047C148.645 518.266 144.363 513.688 138.566 513.688C134.113 513.688 132.504 516.406 131.676 517.891H131.395V506H126.723V538ZM131.301 526C131.301 520.984 133.488 517.656 137.566 517.656C141.801 517.656 143.926 521.234 143.926 526C143.926 530.812 141.738 534.484 137.566 534.484C133.551 534.484 131.301 531.047 131.301 526ZM164 538.484C170.766 538.484 175.188 533.531 175.188 526.109C175.188 518.641 170.766 513.688 164 513.688C157.234 513.688 152.812 518.641 152.812 526.109C152.812 533.531 157.234 538.484 164 538.484ZM164.016 534.562C159.594 534.562 157.531 530.703 157.531 526.094C157.531 521.5 159.594 517.594 164.016 517.594C168.406 517.594 170.469 521.5 170.469 526.094C170.469 530.703 168.406 534.562 164.016 534.562ZM195.605 528.047C195.621 532.125 192.59 534.062 189.965 534.062C187.074 534.062 185.074 531.969 185.074 528.703V514H180.402V529.266C180.402 535.219 183.668 538.313 188.277 538.313C191.887 538.313 194.34 536.406 195.449 533.844H195.699V538H200.293V514H195.605V528.047ZM217.773 514H212.852V508.25H208.18V514H204.664V517.75H208.18V531.922C208.164 536.281 211.492 538.391 215.18 538.313C216.664 538.297 217.664 538.016 218.211 537.812L217.367 533.953C217.055 534.016 216.477 534.156 215.727 534.156C214.211 534.156 212.852 533.656 212.852 530.953V517.75H217.773V514Z" fill="#888888"/>
<g filter="url(#filter5_d)">
<rect x="485" y="418" width="429" height="166" rx="20" fill="white"/>
</g>
<path d="M555.009 470.18H558.812C558.738 466.494 555.595 463.884 550.95 463.884C546.369 463.884 542.928 466.462 542.939 470.318C542.939 473.45 545.165 475.251 548.756 476.178L551.238 476.817C553.592 477.413 555.148 478.148 555.158 479.842C555.148 481.707 553.379 482.953 550.801 482.953C548.33 482.953 546.412 481.845 546.252 479.555H542.364C542.523 483.891 545.751 486.33 550.833 486.33C556.064 486.33 559.1 483.72 559.111 479.874C559.1 476.092 555.979 474.366 552.697 473.589L550.652 473.077C548.862 472.651 546.923 471.895 546.945 470.073C546.955 468.433 548.425 467.229 550.897 467.229C553.251 467.229 554.807 468.326 555.009 470.18ZM562.464 486H566.32V469.636H562.464V486ZM564.403 467.314C565.628 467.314 566.629 466.376 566.629 465.226C566.629 464.065 565.628 463.127 564.403 463.127C563.167 463.127 562.166 464.065 562.166 465.226C562.166 466.376 563.167 467.314 564.403 467.314ZM577.403 492.413C581.824 492.413 585.084 490.389 585.084 486.266V469.636H581.281V472.342H581.067C580.482 471.16 579.256 469.423 576.369 469.423C572.587 469.423 569.615 472.385 569.615 477.765C569.615 483.102 572.587 485.766 576.359 485.766C579.161 485.766 580.471 484.263 581.067 483.06H581.259V486.16C581.259 488.504 579.661 489.494 577.467 489.494C575.144 489.494 574.121 488.397 573.653 487.502L570.18 488.344C570.883 490.57 573.237 492.413 577.403 492.413ZM577.435 482.74C574.888 482.74 573.546 480.759 573.546 477.744C573.546 474.771 574.867 472.587 577.435 472.587C579.917 472.587 581.281 474.643 581.281 477.744C581.281 480.865 579.896 482.74 577.435 482.74ZM592.893 476.412C592.893 474.047 594.32 472.683 596.355 472.683C598.347 472.683 599.54 473.994 599.54 476.178V486H603.397V475.581C603.408 471.661 601.17 469.423 597.793 469.423C595.343 469.423 593.66 470.595 592.914 472.417H592.722V469.636H589.036V486H592.893V476.412ZM614.562 486.32C618.376 486.32 620.996 484.455 621.678 481.611L618.077 481.206C617.555 482.591 616.277 483.315 614.615 483.315C612.122 483.315 610.471 481.675 610.439 478.873H621.838V477.69C621.838 471.948 618.386 469.423 614.359 469.423C609.672 469.423 606.614 472.864 606.614 477.914C606.614 483.049 609.629 486.32 614.562 486.32ZM610.45 476.273C610.567 474.185 612.112 472.428 614.413 472.428C616.629 472.428 618.12 474.047 618.141 476.273H610.45ZM631.173 486.288C633.986 486.288 635.253 484.615 635.861 483.422H636.095V486H639.888V464.182H636.02V472.342H635.861C635.275 471.16 634.071 469.423 631.184 469.423C627.402 469.423 624.43 472.385 624.43 477.839C624.43 483.23 627.317 486.288 631.173 486.288ZM632.249 483.124C629.703 483.124 628.361 480.886 628.361 477.818C628.361 474.771 629.682 472.587 632.249 472.587C634.731 472.587 636.095 474.643 636.095 477.818C636.095 480.993 634.71 483.124 632.249 483.124ZM661.868 479.118C661.868 481.611 660.089 482.847 658.385 482.847C656.531 482.847 655.295 481.536 655.295 479.459V469.636H651.439V480.055C651.439 483.987 653.676 486.213 656.893 486.213C659.343 486.213 661.069 484.924 661.815 483.092H661.985V486H665.725V469.636H661.868V479.118ZM669.691 492.136H673.547V483.422H673.707C674.314 484.615 675.582 486.288 678.394 486.288C682.251 486.288 685.138 483.23 685.138 477.839C685.138 472.385 682.166 469.423 678.384 469.423C675.497 469.423 674.293 471.16 673.707 472.342H673.483V469.636H669.691V492.136ZM673.472 477.818C673.472 474.643 674.836 472.587 677.318 472.587C679.886 472.587 681.207 474.771 681.207 477.818C681.207 480.886 679.865 483.124 677.318 483.124C674.857 483.124 673.472 480.993 673.472 477.818Z" fill="black"/>
<path d="M554.641 538.437C561.078 538.437 565.672 533.891 565.656 527.656C565.672 521.469 561.359 516.969 555.531 516.969C553.156 516.969 550.953 517.875 549.703 519.094H549.516L550.531 510.141H564.109V506H546.516L544.719 522.125L549.141 522.781C550.344 521.703 552.5 520.969 554.438 520.969C558.234 521 560.984 523.844 560.984 527.75C560.984 531.594 558.312 534.375 554.641 534.375C551.547 534.375 549.094 532.406 548.844 529.656H544.156C544.344 534.75 548.766 538.437 554.641 538.437ZM587.742 523.75C587.742 519.922 590.164 517.734 593.492 517.734C596.711 517.734 598.633 519.781 598.633 523.297V538H603.305V522.734C603.305 516.75 600.023 513.688 595.086 513.688C591.352 513.688 589.102 515.312 587.977 517.906H587.68V506H583.07V538H587.742V523.75ZM619.648 538.484C626.414 538.484 630.836 533.531 630.836 526.109C630.836 518.641 626.414 513.688 619.648 513.688C612.883 513.688 608.461 518.641 608.461 526.109C608.461 533.531 612.883 538.484 619.648 538.484ZM619.664 534.562C615.242 534.562 613.18 530.703 613.18 526.094C613.18 521.5 615.242 517.594 619.664 517.594C624.055 517.594 626.117 521.5 626.117 526.094C626.117 530.703 624.055 534.562 619.664 534.562ZM651.254 528.047C651.27 532.125 648.238 534.062 645.613 534.062C642.723 534.062 640.723 531.969 640.723 528.703V514H636.051V529.266C636.051 535.219 639.316 538.313 643.926 538.313C647.535 538.313 649.988 536.406 651.098 533.844H651.348V538H655.941V514H651.254V528.047ZM662.219 538H666.891V523.344C666.891 520.203 669.313 517.937 672.625 517.937C673.594 517.937 674.688 518.109 675.062 518.219V513.75C674.594 513.688 673.672 513.641 673.078 513.641C670.266 513.641 667.859 515.234 666.984 517.812H666.734V514H662.219V538ZM697.09 519.859C696.121 516.125 693.199 513.688 688.012 513.688C682.59 513.688 678.746 516.547 678.746 520.797C678.746 524.203 680.809 526.469 685.309 527.469L689.371 528.359C691.684 528.875 692.762 529.906 692.762 531.406C692.762 533.266 690.777 534.719 687.715 534.719C684.918 534.719 683.121 533.516 682.559 531.156L678.043 531.844C678.824 536.094 682.355 538.484 687.746 538.484C693.543 538.484 697.559 535.406 697.559 531.063C697.559 527.672 695.402 525.578 690.996 524.562L687.184 523.687C684.543 523.062 683.402 522.172 683.418 520.547C683.402 518.703 685.402 517.391 688.059 517.391C690.965 517.391 692.309 519 692.855 520.609L697.09 519.859ZM721.324 538.531C725.293 538.531 727.527 536.516 728.418 534.719H728.605V538H733.168V522.063C733.168 515.078 727.668 513.688 723.855 513.688C719.512 513.688 715.512 515.437 713.949 519.812L718.34 520.812C719.027 519.109 720.777 517.469 723.918 517.469C726.934 517.469 728.48 519.047 728.48 521.766V521.875C728.48 523.578 726.73 523.547 722.418 524.047C717.871 524.578 713.215 525.766 713.215 531.219C713.215 535.938 716.762 538.531 721.324 538.531ZM722.34 534.781C719.699 534.781 717.793 533.594 717.793 531.281C717.793 528.781 720.012 527.891 722.715 527.531C724.23 527.328 727.824 526.922 728.496 526.25V529.344C728.496 532.187 726.23 534.781 722.34 534.781ZM749.453 547.453C755.563 547.453 760.281 544.656 760.281 538.531V514H755.703V517.891H755.359C754.531 516.406 752.875 513.688 748.406 513.688C742.609 513.688 738.344 518.266 738.344 525.906C738.344 533.562 742.703 537.641 748.375 537.641C752.781 537.641 754.484 535.156 755.328 533.625H755.625V538.344C755.625 542.047 753.047 543.688 749.5 543.688C745.609 543.688 744.094 541.734 743.266 540.406L739.25 542.063C740.516 544.953 743.719 547.453 749.453 547.453ZM749.406 533.766C745.234 533.766 743.063 530.562 743.063 525.844C743.063 521.234 745.188 517.656 749.406 517.656C753.484 517.656 755.672 520.984 755.672 525.844C755.672 530.797 753.438 533.766 749.406 533.766ZM776.656 538.484C783.422 538.484 787.844 533.531 787.844 526.109C787.844 518.641 783.422 513.688 776.656 513.688C769.891 513.688 765.469 518.641 765.469 526.109C765.469 533.531 769.891 538.484 776.656 538.484ZM776.672 534.562C772.25 534.562 770.188 530.703 770.188 526.094C770.188 521.5 772.25 517.594 776.672 517.594C781.062 517.594 783.125 521.5 783.125 526.094C783.125 530.703 781.062 534.562 776.672 534.562Z" fill="#888888"/>
<defs>
<filter id="filter0_d" x="0" y="196" width="489" height="226" filterUnits="userSpaceOnUse" color-interpolation-filters="sRGB">
<feFlood flood-opacity="0" result="BackgroundImageFix"/>
<feColorMatrix in="SourceAlpha" type="matrix" values="0 0 0 0 0 0 0 0 0 0 0 0 0 0 0 0 0 0 127 0"/>
<feOffset dx="4" dy="4"/>
<feGaussianBlur stdDeviation="15"/>
<feColorMatrix type="matrix" values="0 0 0 0 0 0 0 0 0 0 0 0 0 0 0 0 0 0 0.16 0"/>
<feBlend mode="normal" in2="BackgroundImageFix" result="effect1_dropShadow"/>
<feBlend mode="normal" in="SourceGraphic" in2="effect1_dropShadow" result="shape"/>
</filter>
<filter id="filter1_d" x="0" y="0" width="489" height="226" filterUnits="userSpaceOnUse" color-interpolation-filters="sRGB">
<feFlood flood-opacity="0" result="BackgroundImageFix"/>
<feColorMatrix in="SourceAlpha" type="matrix" values="0 0 0 0 0 0 0 0 0 0 0 0 0 0 0 0 0 0 127 0"/>
<feOffset dx="4" dy="4"/>
<feGaussianBlur stdDeviation="15"/>
<feColorMatrix type="matrix" values="0 0 0 0 0 0 0 0 0 0 0 0 0 0 0 0 0 0 0.16 0"/>
<feBlend mode="normal" in2="BackgroundImageFix" result="effect1_dropShadow"/>
<feBlend mode="normal" in="SourceGraphic" in2="effect1_dropShadow" result="shape"/>
</filter>
<filter id="filter2_d" x="459" y="196" width="489" height="226" filterUnits="userSpaceOnUse" color-interpolation-filters="sRGB">
<feFlood flood-opacity="0" result="BackgroundImageFix"/>
<feColorMatrix in="SourceAlpha" type="matrix" values="0 0 0 0 0 0 0 0 0 0 0 0 0 0 0 0 0 0 127 0"/>
<feOffset dx="4" dy="4"/>
<feGaussianBlur stdDeviation="15"/>
<feColorMatrix type="matrix" values="0 0 0 0 0 0 0 0 0 0 0 0 0 0 0 0 0 0 0.16 0"/>
<feBlend mode="normal" in2="BackgroundImageFix" result="effect1_dropShadow"/>
<feBlend mode="normal" in="SourceGraphic" in2="effect1_dropShadow" result="shape"/>
</filter>
<filter id="filter3_d" x="459" y="0" width="489" height="226" filterUnits="userSpaceOnUse" color-interpolation-filters="sRGB">
<feFlood flood-opacity="0" result="BackgroundImageFix"/>
<feColorMatrix in="SourceAlpha" type="matrix" values="0 0 0 0 0 0 0 0 0 0 0 0 0 0 0 0 0 0 127 0"/>
<feOffset dx="4" dy="4"/>
<feGaussianBlur stdDeviation="15"/>
<feColorMatrix type="matrix" values="0 0 0 0 0 0 0 0 0 0 0 0 0 0 0 0 0 0 0.16 0"/>
<feBlend mode="normal" in2="BackgroundImageFix" result="effect1_dropShadow"/>
<feBlend mode="normal" in="SourceGraphic" in2="effect1_dropShadow" result="shape"/>
</filter>
<filter id="filter4_d" x="0" y="392" width="489" height="226" filterUnits="userSpaceOnUse" color-interpolation-filters="sRGB">
<feFlood flood-opacity="0" result="BackgroundImageFix"/>
<feColorMatrix in="SourceAlpha" type="matrix" values="0 0 0 0 0 0 0 0 0 0 0 0 0 0 0 0 0 0 127 0"/>
<feOffset dx="4" dy="4"/>
<feGaussianBlur stdDeviation="15"/>
<feColorMatrix type="matrix" values="0 0 0 0 0 0 0 0 0 0 0 0 0 0 0 0 0 0 0.16 0"/>
<feBlend mode="normal" in2="BackgroundImageFix" result="effect1_dropShadow"/>
<feBlend mode="normal" in="SourceGraphic" in2="effect1_dropShadow" result="shape"/>
</filter>
<filter id="filter5_d" x="459" y="392" width="489" height="226" filterUnits="userSpaceOnUse" color-interpolation-filters="sRGB">
<feFlood flood-opacity="0" result="BackgroundImageFix"/>
<feColorMatrix in="SourceAlpha" type="matrix" values="0 0 0 0 0 0 0 0 0 0 0 0 0 0 0 0 0 0 127 0"/>
<feOffset dx="4" dy="4"/>
<feGaussianBlur stdDeviation="15"/>
<feColorMatrix type="matrix" values="0 0 0 0 0 0 0 0 0 0 0 0 0 0 0 0 0 0 0.16 0"/>
<feBlend mode="normal" in2="BackgroundImageFix" result="effect1_dropShadow"/>
<feBlend mode="normal" in="SourceGraphic" in2="effect1_dropShadow" result="shape"/>
</filter>
</defs>
</svg>
