<svg width="488" height="295" viewBox="0 0 488 295" fill="none" xmlns="http://www.w3.org/2000/svg">
<g filter="url(#filter0_d)">
<rect x="26" y="26" width="428" height="235" rx="15" fill="white"/>
</g>
<path d="M79 219L96.8936 194.88C96.8936 194.88 96.8936 194.88 96.8937 194.88C96.8939 194.88 103.748 185.641 109.723 173.56L122.521 147.684C122.521 147.684 122.521 147.684 122.521 147.684C122.521 147.683 128.496 135.602 133.666 121.667L148.076 82.8195C148.076 82.8195 148.076 82.8195 148.076 82.8195C148.076 82.8194 153.245 68.8842 158.414 82.8195L172.824 121.667C172.824 121.667 172.824 121.667 172.824 121.667C172.824 121.667 177.993 135.602 182.486 120.461L198.248 67.346C198.248 67.346 198.248 67.346 198.248 67.346C198.248 67.346 202.741 52.2047 206.237 68.6983L223.993 152.468C223.993 152.468 223.993 152.468 223.993 152.468C223.993 152.468 227.489 168.961 234.344 159.722L245.383 144.842C245.383 144.842 245.383 144.842 245.383 144.842C245.383 144.841 250.368 138.122 254.622 145.535C256.485 148.78 257.535 152.442 259.136 155.824L270.019 178.812C270.146 179.081 270.27 179.347 270.401 179.615C271.552 181.975 277.764 193.993 284.916 193.993L285.995 194.102C291.101 194.62 296.316 194.729 301.142 192.985C303.651 192.078 306.53 190.76 309.348 188.861L318.868 182.445C318.868 182.445 318.868 182.445 318.868 182.445C318.868 182.445 326.482 177.313 329.978 160.82L346.841 105.014C347.436 103.044 347.908 101.037 348.545 99.0798C349.804 95.2107 352.376 90.1967 355.173 101.507L372.036 169.697C372.036 169.697 372.036 169.697 372.036 169.697C372.036 169.698 375.979 185.64 379.475 169.147L388.057 120.985C389.035 115.493 390.64 110.131 392.84 105.004L409 67.346" stroke="url(#paint0_linear)" stroke-width="4" stroke-linecap="round" stroke-linejoin="round"/>
<line x1="76" y1="51" x2="76" y2="221" stroke="black" stroke-width="2" stroke-linecap="round"/>
<line x1="420" y1="221" x2="76" y2="221" stroke="black" stroke-width="2" stroke-linecap="round"/>
<path d="M65.8958 203.976C66.2318 203.976 66.5251 204.048 66.7758 204.192C67.0264 204.331 67.2184 204.526 67.3518 204.776C67.4904 205.027 67.5598 205.318 67.5598 205.648C67.5598 206.219 67.3891 206.662 67.0478 206.976C66.7064 207.291 66.2504 207.448 65.6798 207.448C65.1998 207.448 64.8051 207.352 64.4958 207.16C64.1918 206.968 63.9491 206.678 63.7678 206.288L64.5678 205.848C64.6478 206.136 64.7678 206.355 64.9278 206.504C65.0931 206.648 65.3384 206.72 65.6638 206.72C65.9891 206.72 66.2451 206.632 66.4318 206.456C66.6238 206.28 66.7198 206.032 66.7198 205.712C66.7198 205.382 66.6318 205.128 66.4558 204.952C66.2798 204.771 66.0264 204.68 65.6957 204.68C65.1944 204.68 64.8371 204.832 64.6238 205.136L63.9118 205.088L64.2398 202.088H67.3038V202.824H64.9198L64.7358 204.288L64.7198 204.4H64.7278C64.9838 204.118 65.3731 203.976 65.8958 203.976Z" fill="black"/>
<path d="M62.592 174.896V180.176H61.752V176.272C61.752 176.09 61.7547 175.949 61.76 175.848C61.5787 176.024 61.3707 176.176 61.136 176.304C60.9067 176.432 60.672 176.522 60.432 176.576L60.272 175.832C60.4107 175.816 60.5893 175.757 60.808 175.656C61.032 175.554 61.2427 175.434 61.44 175.296C61.6373 175.157 61.7813 175.024 61.872 174.896H62.592ZM65.8958 176.784C66.2318 176.784 66.5251 176.856 66.7758 177C67.0264 177.138 67.2184 177.333 67.3518 177.584C67.4904 177.834 67.5598 178.125 67.5598 178.456C67.5598 179.026 67.3891 179.469 67.0478 179.784C66.7064 180.098 66.2504 180.256 65.6798 180.256C65.1998 180.256 64.8051 180.16 64.4958 179.968C64.1918 179.776 63.9491 179.485 63.7678 179.096L64.5678 178.656C64.6478 178.944 64.7678 179.162 64.9278 179.312C65.0931 179.456 65.3384 179.528 65.6638 179.528C65.9891 179.528 66.2451 179.44 66.4318 179.264C66.6238 179.088 66.7198 178.84 66.7198 178.52C66.7198 178.189 66.6318 177.936 66.4558 177.76C66.2798 177.578 66.0264 177.488 65.6957 177.488C65.1944 177.488 64.8371 177.64 64.6238 177.944L63.9118 177.896L64.2398 174.896H67.3038V175.632H64.9198L64.7358 177.096L64.7198 177.208H64.7278C64.9838 176.925 65.3731 176.784 65.8958 176.784Z" fill="black"/>
<path d="M59.2084 152.421C59.9018 151.935 60.4404 151.525 60.8244 151.189C61.2084 150.847 61.4831 150.538 61.6484 150.261C61.8191 149.978 61.9044 149.687 61.9044 149.389C61.9044 149.106 61.8138 148.877 61.6324 148.701C61.4564 148.525 61.2138 148.437 60.9044 148.437C60.5738 148.437 60.3098 148.546 60.1124 148.765C59.9204 148.983 59.8111 149.287 59.7844 149.677L59.0404 149.333C59.0938 148.826 59.2884 148.426 59.6244 148.133C59.9604 147.839 60.4031 147.693 60.9524 147.693C61.3311 147.693 61.6591 147.767 61.9364 147.917C62.2138 148.061 62.4244 148.258 62.5684 148.509C62.7124 148.759 62.7844 149.042 62.7844 149.357C62.7844 149.863 62.5951 150.346 62.2164 150.805C61.8431 151.263 61.2191 151.773 60.3444 152.333V152.349C60.6111 152.327 60.9018 152.317 61.2164 152.317H62.8804V153.053H59.2084V152.421ZM65.8958 149.661C66.2318 149.661 66.5251 149.733 66.7758 149.877C67.0264 150.015 67.2184 150.21 67.3518 150.461C67.4904 150.711 67.5598 151.002 67.5598 151.333C67.5598 151.903 67.3891 152.346 67.0478 152.661C66.7064 152.975 66.2504 153.133 65.6798 153.133C65.1998 153.133 64.8051 153.037 64.4958 152.845C64.1918 152.653 63.9491 152.362 63.7678 151.973L64.5678 151.533C64.6478 151.821 64.7678 152.039 64.9278 152.189C65.0931 152.333 65.3384 152.405 65.6638 152.405C65.9891 152.405 66.2451 152.317 66.4318 152.141C66.6238 151.965 66.7198 151.717 66.7198 151.397C66.7198 151.066 66.6318 150.813 66.4558 150.637C66.2798 150.455 66.0264 150.365 65.6957 150.365C65.1944 150.365 64.8371 150.517 64.6238 150.821L63.9118 150.773L64.2398 147.773H67.3038V148.509H64.9198L64.7358 149.973L64.7198 150.085H64.7278C64.9838 149.802 65.3731 149.661 65.8958 149.661Z" fill="black"/>
<path d="M61.0003 120.535C61.3629 120.535 61.6723 120.599 61.9283 120.727C62.1896 120.849 62.3869 121.017 62.5203 121.231C62.6536 121.444 62.7203 121.681 62.7203 121.943C62.7203 122.193 62.6696 122.417 62.5683 122.615C62.4723 122.807 62.3469 122.956 62.1923 123.063C62.0429 123.169 61.8883 123.223 61.7283 123.223V123.239C61.9309 123.239 62.1149 123.289 62.2803 123.391C62.4509 123.492 62.5869 123.636 62.6883 123.823C62.7896 124.009 62.8403 124.225 62.8403 124.471C62.8403 124.759 62.7603 125.017 62.6003 125.247C62.4403 125.476 62.2136 125.655 61.9203 125.783C61.6323 125.911 61.2989 125.975 60.9203 125.975C59.9656 125.975 59.3336 125.548 59.0243 124.695L59.8083 124.319C59.8883 124.628 60.0163 124.86 60.1923 125.015C60.3683 125.164 60.6216 125.239 60.9523 125.239C61.2723 125.239 61.5229 125.161 61.7043 125.007C61.8856 124.847 61.9763 124.636 61.9763 124.375C61.9763 124.087 61.8883 123.884 61.7123 123.767C61.5416 123.644 61.2669 123.583 60.8883 123.583H60.6483V122.903H60.8643C61.5256 122.903 61.8563 122.631 61.8563 122.087C61.8563 121.82 61.7789 121.617 61.6243 121.479C61.4749 121.34 61.2616 121.271 60.9843 121.271C60.7016 121.271 60.4749 121.34 60.3043 121.479C60.1389 121.612 60.0323 121.804 59.9843 122.055L59.2003 121.735C59.3123 121.351 59.5283 121.055 59.8483 120.847C60.1736 120.639 60.5576 120.535 61.0003 120.535ZM65.8958 122.503C66.2318 122.503 66.5251 122.575 66.7758 122.719C67.0264 122.857 67.2184 123.052 67.3518 123.303C67.4904 123.553 67.5598 123.844 67.5598 124.175C67.5598 124.745 67.3891 125.188 67.0478 125.503C66.7064 125.817 66.2504 125.975 65.6798 125.975C65.1998 125.975 64.8051 125.879 64.4958 125.687C64.1918 125.495 63.9491 125.204 63.7678 124.815L64.5678 124.375C64.6478 124.663 64.7678 124.881 64.9278 125.031C65.0931 125.175 65.3384 125.247 65.6638 125.247C65.9891 125.247 66.2451 125.159 66.4318 124.983C66.6238 124.807 66.7198 124.559 66.7198 124.239C66.7198 123.908 66.6318 123.655 66.4558 123.479C66.2798 123.297 66.0264 123.207 65.6957 123.207C65.1944 123.207 64.8371 123.359 64.6238 123.663L63.9118 123.615L64.2398 120.615H67.3038V121.351H64.9198L64.7358 122.815L64.7198 122.927H64.7278C64.9838 122.644 65.3731 122.503 65.8958 122.503Z" fill="black"/>
<path d="M62.9992 97.4168H62.1032V98.7368H61.2952V97.4168H58.6952V96.8968L61.0552 93.4568H62.1032V96.7528H62.9992V97.4168ZM59.5512 96.7528H61.2952V94.9448L61.3272 94.0888H61.3112C61.1832 94.3608 61.0125 94.6541 60.7992 94.9688L59.5512 96.7528ZM65.8958 95.3448C66.2318 95.3448 66.5251 95.4168 66.7758 95.5608C67.0264 95.6995 67.2184 95.8941 67.3518 96.1448C67.4904 96.3955 67.5598 96.6861 67.5598 97.0168C67.5598 97.5875 67.3891 98.0301 67.0478 98.3448C66.7064 98.6595 66.2504 98.8168 65.6798 98.8168C65.1998 98.8168 64.8051 98.7208 64.4958 98.5288C64.1918 98.3368 63.9491 98.0461 63.7678 97.6568L64.5678 97.2168C64.6478 97.5048 64.7678 97.7235 64.9278 97.8728C65.0931 98.0168 65.3384 98.0888 65.6638 98.0888C65.9891 98.0888 66.2451 98.0008 66.4318 97.8248C66.6238 97.6488 66.7198 97.4008 66.7198 97.0808C66.7198 96.7501 66.6318 96.4968 66.4558 96.3208C66.2798 96.1395 66.0264 96.0488 65.6957 96.0488C65.1944 96.0488 64.8371 96.2008 64.6238 96.5048L63.9118 96.4568L64.2398 93.4568H67.3038V94.1928H64.9198L64.7358 95.6568L64.7198 95.7688H64.7278C64.9838 95.4861 65.3731 95.3448 65.8958 95.3448Z" fill="black"/>
<path d="M61.2395 68.1869C61.5755 68.1869 61.8688 68.2589 62.1195 68.4029C62.3702 68.5416 62.5622 68.7363 62.6955 68.9869C62.8342 69.2376 62.9035 69.5283 62.9035 69.8589C62.9035 70.4296 62.7328 70.8723 62.3915 71.1869C62.0502 71.5016 61.5942 71.6589 61.0235 71.6589C60.5435 71.6589 60.1488 71.5629 59.8395 71.3709C59.5355 71.1789 59.2928 70.8883 59.1115 70.4989L59.9115 70.0589C59.9915 70.3469 60.1115 70.5656 60.2715 70.7149C60.4368 70.8589 60.6822 70.9309 61.0075 70.9309C61.3328 70.9309 61.5888 70.8429 61.7755 70.6669C61.9675 70.4909 62.0635 70.2429 62.0635 69.9229C62.0635 69.5923 61.9755 69.3389 61.7995 69.1629C61.6235 68.9816 61.3702 68.8909 61.0395 68.8909C60.5382 68.8909 60.1808 69.0429 59.9675 69.3469L59.2555 69.2989L59.5835 66.2989H62.6475V67.0349H60.2635L60.0795 68.4989L60.0635 68.6109H60.0715C60.3275 68.3283 60.7168 68.1869 61.2395 68.1869ZM65.8958 68.1869C66.2318 68.1869 66.5251 68.2589 66.7758 68.4029C67.0264 68.5416 67.2184 68.7363 67.3518 68.9869C67.4904 69.2376 67.5598 69.5283 67.5598 69.8589C67.5598 70.4296 67.3891 70.8723 67.0478 71.1869C66.7064 71.5016 66.2504 71.6589 65.6798 71.6589C65.1998 71.6589 64.8051 71.5629 64.4958 71.3709C64.1918 71.1789 63.9491 70.8883 63.7678 70.4989L64.5678 70.0589C64.6478 70.3469 64.7678 70.5656 64.9278 70.7149C65.0931 70.8589 65.3384 70.9309 65.6638 70.9309C65.9891 70.9309 66.2451 70.8429 66.4318 70.6669C66.6238 70.4909 66.7198 70.2429 66.7198 69.9229C66.7198 69.5923 66.6318 69.3389 66.4558 69.1629C66.2798 68.9816 66.0264 68.8909 65.6957 68.8909C65.1944 68.8909 64.8371 69.0429 64.6238 69.3469L63.9118 69.2989L64.2398 66.2989H67.3038V67.0349H64.9198L64.7358 68.4989L64.7198 68.6109H64.7278C64.9838 68.3283 65.3731 68.1869 65.8958 68.1869Z" fill="black"/>
<path d="M92.2993 233.616H90.0753L89.5713 235H88.6913L90.6833 229.72H91.7073L93.6993 235H92.7953L92.2993 233.616ZM92.0433 232.92L91.4353 231.224L91.1953 230.464H91.1713L90.9473 231.208L90.3233 232.92H92.0433ZM98.0849 231V235H97.3249L97.2929 234.352C97.0209 234.837 96.5462 235.08 95.8689 235.08C95.4369 235.08 95.0875 234.963 94.8209 234.728C94.5595 234.488 94.4289 234.123 94.4289 233.632V231H95.2849V233.408C95.2849 233.76 95.3542 234.011 95.4929 234.16C95.6315 234.304 95.8369 234.376 96.1089 234.376C96.4342 234.376 96.7009 234.275 96.9089 234.072C97.1222 233.864 97.2289 233.56 97.2289 233.16V231H98.0849ZM101.742 234.376C102.147 234.376 102.462 234.467 102.686 234.648C102.91 234.829 103.022 235.08 103.022 235.4C103.022 235.672 102.931 235.907 102.75 236.104C102.574 236.301 102.329 236.453 102.014 236.56C101.705 236.667 101.355 236.72 100.966 236.72C100.331 236.72 99.854 236.627 99.534 236.44C99.2193 236.253 99.062 236.005 99.062 235.696C99.062 235.515 99.1233 235.355 99.246 235.216C99.374 235.083 99.55 234.987 99.774 234.928C99.6033 234.848 99.4673 234.747 99.366 234.624C99.2647 234.496 99.214 234.344 99.214 234.168C99.214 233.779 99.422 233.512 99.838 233.368C99.6353 233.251 99.4807 233.099 99.374 232.912C99.2727 232.725 99.222 232.512 99.222 232.272C99.222 232.005 99.294 231.771 99.438 231.568C99.582 231.36 99.7847 231.2 100.046 231.088C100.313 230.976 100.617 230.92 100.958 230.92C101.251 230.92 101.521 230.963 101.766 231.048C101.841 230.755 101.974 230.533 102.166 230.384C102.363 230.229 102.622 230.155 102.942 230.16L103.086 230.824C102.83 230.819 102.622 230.851 102.462 230.92C102.307 230.989 102.201 231.093 102.142 231.232C102.318 231.355 102.454 231.504 102.55 231.68C102.646 231.856 102.694 232.053 102.694 232.272C102.694 232.683 102.534 233.011 102.214 233.256C101.899 233.501 101.481 233.624 100.958 233.624C100.713 233.624 100.491 233.6 100.294 233.552C100.161 233.584 100.062 233.637 99.998 233.712C99.9393 233.781 99.91 233.875 99.91 233.992C99.91 234.115 99.9527 234.211 100.038 234.28C100.129 234.344 100.251 234.376 100.406 234.376H101.742ZM100.958 231.52C100.713 231.52 100.507 231.592 100.342 231.736C100.177 231.875 100.094 232.053 100.094 232.272C100.094 232.496 100.177 232.68 100.342 232.824C100.507 232.963 100.713 233.032 100.958 233.032C101.209 233.032 101.414 232.963 101.574 232.824C101.739 232.68 101.822 232.496 101.822 232.272C101.822 232.048 101.739 231.867 101.574 231.728C101.414 231.589 101.209 231.52 100.958 231.52ZM101.046 236.08C101.435 236.08 101.739 236.024 101.958 235.912C102.177 235.8 102.286 235.661 102.286 235.496C102.286 235.363 102.233 235.261 102.126 235.192C102.019 235.123 101.841 235.088 101.59 235.088H100.51C100.27 235.088 100.089 235.125 99.966 235.2C99.8487 235.275 99.79 235.379 99.79 235.512C99.79 235.693 99.894 235.832 100.102 235.928C100.315 236.029 100.63 236.08 101.046 236.08ZM108.248 229.72V235H107.408V231.096C107.408 230.915 107.411 230.773 107.416 230.672C107.235 230.848 107.027 231 106.792 231.128C106.563 231.256 106.328 231.347 106.088 231.4L105.928 230.656C106.067 230.64 106.246 230.581 106.464 230.48C106.688 230.379 106.899 230.259 107.096 230.12C107.294 229.981 107.438 229.848 107.528 229.72H108.248Z" fill="black"/>
<path d="M146.541 233.616H144.317L143.813 235H142.933L144.925 229.72H145.949L147.941 235H147.037L146.541 233.616ZM146.285 232.92L145.677 231.224L145.437 230.464H145.413L145.189 231.208L144.565 232.92H146.285ZM152.327 231V235H151.567L151.535 234.352C151.263 234.837 150.788 235.08 150.111 235.08C149.679 235.08 149.33 234.963 149.063 234.728C148.802 234.488 148.671 234.123 148.671 233.632V231H149.527V233.408C149.527 233.76 149.596 234.011 149.735 234.16C149.874 234.304 150.079 234.376 150.351 234.376C150.676 234.376 150.943 234.275 151.151 234.072C151.364 233.864 151.471 233.56 151.471 233.16V231H152.327ZM155.984 234.376C156.39 234.376 156.704 234.467 156.928 234.648C157.152 234.829 157.264 235.08 157.264 235.4C157.264 235.672 157.174 235.907 156.992 236.104C156.816 236.301 156.571 236.453 156.256 236.56C155.947 236.667 155.598 236.72 155.208 236.72C154.574 236.72 154.096 236.627 153.776 236.44C153.462 236.253 153.304 236.005 153.304 235.696C153.304 235.515 153.366 235.355 153.488 235.216C153.616 235.083 153.792 234.987 154.016 234.928C153.846 234.848 153.71 234.747 153.608 234.624C153.507 234.496 153.456 234.344 153.456 234.168C153.456 233.779 153.664 233.512 154.08 233.368C153.878 233.251 153.723 233.099 153.616 232.912C153.515 232.725 153.464 232.512 153.464 232.272C153.464 232.005 153.536 231.771 153.68 231.568C153.824 231.36 154.027 231.2 154.288 231.088C154.555 230.976 154.859 230.92 155.2 230.92C155.494 230.92 155.763 230.963 156.008 231.048C156.083 230.755 156.216 230.533 156.408 230.384C156.606 230.229 156.864 230.155 157.184 230.16L157.328 230.824C157.072 230.819 156.864 230.851 156.704 230.92C156.55 230.989 156.443 231.093 156.384 231.232C156.56 231.355 156.696 231.504 156.792 231.68C156.888 231.856 156.936 232.053 156.936 232.272C156.936 232.683 156.776 233.011 156.456 233.256C156.142 233.501 155.723 233.624 155.2 233.624C154.955 233.624 154.734 233.6 154.536 233.552C154.403 233.584 154.304 233.637 154.24 233.712C154.182 233.781 154.152 233.875 154.152 233.992C154.152 234.115 154.195 234.211 154.28 234.28C154.371 234.344 154.494 234.376 154.648 234.376H155.984ZM155.2 231.52C154.955 231.52 154.75 231.592 154.584 231.736C154.419 231.875 154.336 232.053 154.336 232.272C154.336 232.496 154.419 232.68 154.584 232.824C154.75 232.963 154.955 233.032 155.2 233.032C155.451 233.032 155.656 232.963 155.816 232.824C155.982 232.68 156.064 232.496 156.064 232.272C156.064 232.048 155.982 231.867 155.816 231.728C155.656 231.589 155.451 231.52 155.2 231.52ZM155.288 236.08C155.678 236.08 155.982 236.024 156.2 235.912C156.419 235.8 156.528 235.661 156.528 235.496C156.528 235.363 156.475 235.261 156.368 235.192C156.262 235.123 156.083 235.088 155.832 235.088H154.752C154.512 235.088 154.331 235.125 154.208 235.2C154.091 235.275 154.032 235.379 154.032 235.512C154.032 235.693 154.136 235.832 154.344 235.928C154.558 236.029 154.872 236.08 155.288 236.08ZM164.655 233.68H163.759V235H162.951V233.68H160.351V233.16L162.711 229.72H163.759V233.016H164.655V233.68ZM161.207 233.016H162.951V231.208L162.983 230.352H162.967C162.839 230.624 162.669 230.917 162.455 231.232L161.207 233.016Z" fill="black"/>
<path d="M202.19 233.616H199.966L199.462 235H198.582L200.574 229.72H201.598L203.59 235H202.686L202.19 233.616ZM201.934 232.92L201.326 231.224L201.086 230.464H201.062L200.838 231.208L200.214 232.92H201.934ZM207.976 231V235H207.216L207.184 234.352C206.912 234.837 206.437 235.08 205.76 235.08C205.328 235.08 204.978 234.963 204.712 234.728C204.45 234.488 204.32 234.123 204.32 233.632V231H205.176V233.408C205.176 233.76 205.245 234.011 205.384 234.16C205.522 234.304 205.728 234.376 206 234.376C206.325 234.376 206.592 234.275 206.8 234.072C207.013 233.864 207.12 233.56 207.12 233.16V231H207.976ZM211.633 234.376C212.038 234.376 212.353 234.467 212.577 234.648C212.801 234.829 212.913 235.08 212.913 235.4C212.913 235.672 212.822 235.907 212.641 236.104C212.465 236.301 212.219 236.453 211.905 236.56C211.595 236.667 211.246 236.72 210.857 236.72C210.222 236.72 209.745 236.627 209.425 236.44C209.11 236.253 208.953 236.005 208.953 235.696C208.953 235.515 209.014 235.355 209.137 235.216C209.265 235.083 209.441 234.987 209.665 234.928C209.494 234.848 209.358 234.747 209.257 234.624C209.155 234.496 209.105 234.344 209.105 234.168C209.105 233.779 209.313 233.512 209.729 233.368C209.526 233.251 209.371 233.099 209.265 232.912C209.163 232.725 209.113 232.512 209.113 232.272C209.113 232.005 209.185 231.771 209.329 231.568C209.473 231.36 209.675 231.2 209.937 231.088C210.203 230.976 210.507 230.92 210.849 230.92C211.142 230.92 211.411 230.963 211.657 231.048C211.731 230.755 211.865 230.533 212.057 230.384C212.254 230.229 212.513 230.155 212.833 230.16L212.977 230.824C212.721 230.819 212.513 230.851 212.353 230.92C212.198 230.989 212.091 231.093 212.033 231.232C212.209 231.355 212.345 231.504 212.441 231.68C212.537 231.856 212.585 232.053 212.585 232.272C212.585 232.683 212.425 233.011 212.105 233.256C211.79 233.501 211.371 233.624 210.849 233.624C210.603 233.624 210.382 233.6 210.185 233.552C210.051 233.584 209.953 233.637 209.889 233.712C209.83 233.781 209.801 233.875 209.801 233.992C209.801 234.115 209.843 234.211 209.929 234.28C210.019 234.344 210.142 234.376 210.297 234.376H211.633ZM210.849 231.52C210.603 231.52 210.398 231.592 210.233 231.736C210.067 231.875 209.985 232.053 209.985 232.272C209.985 232.496 210.067 232.68 210.233 232.824C210.398 232.963 210.603 233.032 210.849 233.032C211.099 233.032 211.305 232.963 211.465 232.824C211.63 232.68 211.713 232.496 211.713 232.272C211.713 232.048 211.63 231.867 211.465 231.728C211.305 231.589 211.099 231.52 210.849 231.52ZM210.937 236.08C211.326 236.08 211.63 236.024 211.849 235.912C212.067 235.8 212.177 235.661 212.177 235.496C212.177 235.363 212.123 235.261 212.017 235.192C211.91 235.123 211.731 235.088 211.481 235.088H210.401C210.161 235.088 209.979 235.125 209.857 235.2C209.739 235.275 209.681 235.379 209.681 235.512C209.681 235.693 209.785 235.832 209.993 235.928C210.206 236.029 210.521 236.08 210.937 236.08ZM219.735 229.72V230.432C219.084 231.099 218.615 231.803 218.327 232.544C218.039 233.285 217.895 234.104 217.895 235H217.023C217.023 234.152 217.175 233.347 217.479 232.584C217.783 231.821 218.239 231.115 218.847 230.464H215.711V229.72H219.735Z" fill="black"/>
<path d="M257.276 233.616H255.052L254.548 235H253.668L255.66 229.72H256.684L258.676 235H257.772L257.276 233.616ZM257.02 232.92L256.412 231.224L256.172 230.464H256.148L255.924 231.208L255.3 232.92H257.02ZM263.061 231V235H262.301L262.269 234.352C261.997 234.837 261.523 235.08 260.845 235.08C260.413 235.08 260.064 234.963 259.797 234.728C259.536 234.488 259.405 234.123 259.405 233.632V231H260.261V233.408C260.261 233.76 260.331 234.011 260.469 234.16C260.608 234.304 260.813 234.376 261.085 234.376C261.411 234.376 261.677 234.275 261.885 234.072C262.099 233.864 262.205 233.56 262.205 233.16V231H263.061ZM266.719 234.376C267.124 234.376 267.439 234.467 267.663 234.648C267.887 234.829 267.999 235.08 267.999 235.4C267.999 235.672 267.908 235.907 267.727 236.104C267.551 236.301 267.305 236.453 266.991 236.56C266.681 236.667 266.332 236.72 265.943 236.72C265.308 236.72 264.831 236.627 264.511 236.44C264.196 236.253 264.039 236.005 264.039 235.696C264.039 235.515 264.1 235.355 264.223 235.216C264.351 235.083 264.527 234.987 264.751 234.928C264.58 234.848 264.444 234.747 264.343 234.624C264.241 234.496 264.191 234.344 264.191 234.168C264.191 233.779 264.399 233.512 264.815 233.368C264.612 233.251 264.457 233.099 264.351 232.912C264.249 232.725 264.199 232.512 264.199 232.272C264.199 232.005 264.271 231.771 264.415 231.568C264.559 231.36 264.761 231.2 265.023 231.088C265.289 230.976 265.593 230.92 265.935 230.92C266.228 230.92 266.497 230.963 266.743 231.048C266.817 230.755 266.951 230.533 267.143 230.384C267.34 230.229 267.599 230.155 267.919 230.16L268.063 230.824C267.807 230.819 267.599 230.851 267.439 230.92C267.284 230.989 267.177 231.093 267.119 231.232C267.295 231.355 267.431 231.504 267.527 231.68C267.623 231.856 267.671 232.053 267.671 232.272C267.671 232.683 267.511 233.011 267.191 233.256C266.876 233.501 266.457 233.624 265.935 233.624C265.689 233.624 265.468 233.6 265.271 233.552C265.137 233.584 265.039 233.637 264.975 233.712C264.916 233.781 264.887 233.875 264.887 233.992C264.887 234.115 264.929 234.211 265.015 234.28C265.105 234.344 265.228 234.376 265.383 234.376H266.719ZM265.935 231.52C265.689 231.52 265.484 231.592 265.319 231.736C265.153 231.875 265.071 232.053 265.071 232.272C265.071 232.496 265.153 232.68 265.319 232.824C265.484 232.963 265.689 233.032 265.935 233.032C266.185 233.032 266.391 232.963 266.551 232.824C266.716 232.68 266.799 232.496 266.799 232.272C266.799 232.048 266.716 231.867 266.551 231.728C266.391 231.589 266.185 231.52 265.935 231.52ZM266.023 236.08C266.412 236.08 266.716 236.024 266.935 235.912C267.153 235.8 267.263 235.661 267.263 235.496C267.263 235.363 267.209 235.261 267.103 235.192C266.996 235.123 266.817 235.088 266.567 235.088H265.487C265.247 235.088 265.065 235.125 264.943 235.2C264.825 235.275 264.767 235.379 264.767 235.512C264.767 235.693 264.871 235.832 265.079 235.928C265.292 236.029 265.607 236.08 266.023 236.08ZM273.225 229.72V235H272.385V231.096C272.385 230.915 272.387 230.773 272.393 230.672C272.211 230.848 272.003 231 271.769 231.128C271.539 231.256 271.305 231.347 271.065 231.4L270.905 230.656C271.043 230.64 271.222 230.581 271.441 230.48C271.665 230.379 271.875 230.259 272.073 230.12C272.27 229.981 272.414 229.848 272.505 229.72H273.225ZM276.489 235.08C275.822 235.08 275.315 234.851 274.969 234.392C274.627 233.928 274.457 233.251 274.457 232.36C274.457 231.469 274.627 230.795 274.969 230.336C275.315 229.872 275.822 229.64 276.489 229.64C277.155 229.64 277.662 229.872 278.009 230.336C278.355 230.795 278.529 231.469 278.529 232.36C278.529 233.251 278.355 233.928 278.009 234.392C277.662 234.851 277.155 235.08 276.489 235.08ZM276.489 234.352C276.873 234.352 277.163 234.187 277.361 233.856C277.558 233.52 277.657 233.021 277.657 232.36C277.657 231.699 277.558 231.203 277.361 230.872C277.163 230.536 276.873 230.368 276.489 230.368C275.715 230.368 275.329 231.032 275.329 232.36C275.329 233.688 275.715 234.352 276.489 234.352Z" fill="black"/>
<path d="M315.768 233.616H313.544L313.04 235H312.16L314.152 229.72H315.176L317.168 235H316.264L315.768 233.616ZM315.512 232.92L314.904 231.224L314.664 230.464H314.64L314.416 231.208L313.792 232.92H315.512ZM321.554 231V235H320.794L320.762 234.352C320.49 234.837 320.015 235.08 319.338 235.08C318.906 235.08 318.556 234.963 318.29 234.728C318.028 234.488 317.898 234.123 317.898 233.632V231H318.754V233.408C318.754 233.76 318.823 234.011 318.962 234.16C319.1 234.304 319.306 234.376 319.578 234.376C319.903 234.376 320.17 234.275 320.378 234.072C320.591 233.864 320.698 233.56 320.698 233.16V231H321.554ZM325.211 234.376C325.616 234.376 325.931 234.467 326.155 234.648C326.379 234.829 326.491 235.08 326.491 235.4C326.491 235.672 326.4 235.907 326.219 236.104C326.043 236.301 325.797 236.453 325.483 236.56C325.173 236.667 324.824 236.72 324.435 236.72C323.8 236.72 323.323 236.627 323.003 236.44C322.688 236.253 322.531 236.005 322.531 235.696C322.531 235.515 322.592 235.355 322.715 235.216C322.843 235.083 323.019 234.987 323.243 234.928C323.072 234.848 322.936 234.747 322.835 234.624C322.733 234.496 322.683 234.344 322.683 234.168C322.683 233.779 322.891 233.512 323.307 233.368C323.104 233.251 322.949 233.099 322.843 232.912C322.741 232.725 322.691 232.512 322.691 232.272C322.691 232.005 322.763 231.771 322.907 231.568C323.051 231.36 323.253 231.2 323.515 231.088C323.781 230.976 324.085 230.92 324.427 230.92C324.72 230.92 324.989 230.963 325.235 231.048C325.309 230.755 325.443 230.533 325.635 230.384C325.832 230.229 326.091 230.155 326.411 230.16L326.555 230.824C326.299 230.819 326.091 230.851 325.931 230.92C325.776 230.989 325.669 231.093 325.611 231.232C325.787 231.355 325.923 231.504 326.019 231.68C326.115 231.856 326.163 232.053 326.163 232.272C326.163 232.683 326.003 233.011 325.683 233.256C325.368 233.501 324.949 233.624 324.427 233.624C324.181 233.624 323.96 233.6 323.763 233.552C323.629 233.584 323.531 233.637 323.467 233.712C323.408 233.781 323.379 233.875 323.379 233.992C323.379 234.115 323.421 234.211 323.507 234.28C323.597 234.344 323.72 234.376 323.875 234.376H325.211ZM324.427 231.52C324.181 231.52 323.976 231.592 323.811 231.736C323.645 231.875 323.563 232.053 323.563 232.272C323.563 232.496 323.645 232.68 323.811 232.824C323.976 232.963 324.181 233.032 324.427 233.032C324.677 233.032 324.883 232.963 325.043 232.824C325.208 232.68 325.291 232.496 325.291 232.272C325.291 232.048 325.208 231.867 325.043 231.728C324.883 231.589 324.677 231.52 324.427 231.52ZM324.515 236.08C324.904 236.08 325.208 236.024 325.427 235.912C325.645 235.8 325.755 235.661 325.755 235.496C325.755 235.363 325.701 235.261 325.595 235.192C325.488 235.123 325.309 235.088 325.059 235.088H323.979C323.739 235.088 323.557 235.125 323.435 235.2C323.317 235.275 323.259 235.379 323.259 235.512C323.259 235.693 323.363 235.832 323.571 235.928C323.784 236.029 324.099 236.08 324.515 236.08ZM331.717 229.72V235H330.877V231.096C330.877 230.915 330.88 230.773 330.885 230.672C330.704 230.848 330.496 231 330.261 231.128C330.032 231.256 329.797 231.347 329.557 231.4L329.397 230.656C329.536 230.64 329.714 230.581 329.933 230.48C330.157 230.379 330.368 230.259 330.565 230.12C330.762 229.981 330.906 229.848 330.997 229.72H331.717ZM334.813 229.64C335.175 229.64 335.485 229.704 335.741 229.832C336.002 229.955 336.199 230.123 336.333 230.336C336.466 230.549 336.533 230.787 336.533 231.048C336.533 231.299 336.482 231.523 336.381 231.72C336.285 231.912 336.159 232.061 336.005 232.168C335.855 232.275 335.701 232.328 335.541 232.328V232.344C335.743 232.344 335.927 232.395 336.093 232.496C336.263 232.597 336.399 232.741 336.501 232.928C336.602 233.115 336.653 233.331 336.653 233.576C336.653 233.864 336.573 234.123 336.413 234.352C336.253 234.581 336.026 234.76 335.733 234.888C335.445 235.016 335.111 235.08 334.733 235.08C333.778 235.08 333.146 234.653 332.837 233.8L333.621 233.424C333.701 233.733 333.829 233.965 334.005 234.12C334.181 234.269 334.434 234.344 334.765 234.344C335.085 234.344 335.335 234.267 335.517 234.112C335.698 233.952 335.789 233.741 335.789 233.48C335.789 233.192 335.701 232.989 335.525 232.872C335.354 232.749 335.079 232.688 334.701 232.688H334.461V232.008H334.677C335.338 232.008 335.669 231.736 335.669 231.192C335.669 230.925 335.591 230.723 335.437 230.584C335.287 230.445 335.074 230.376 334.797 230.376C334.514 230.376 334.287 230.445 334.117 230.584C333.951 230.717 333.845 230.909 333.797 231.16L333.013 230.84C333.125 230.456 333.341 230.16 333.661 229.952C333.986 229.744 334.37 229.64 334.813 229.64Z" fill="black"/>
<path d="M374.768 233.616H372.544L372.04 235H371.16L373.152 229.72H374.176L376.168 235H375.264L374.768 233.616ZM374.512 232.92L373.904 231.224L373.664 230.464H373.64L373.416 231.208L372.792 232.92H374.512ZM380.554 231V235H379.794L379.762 234.352C379.49 234.837 379.015 235.08 378.338 235.08C377.906 235.08 377.556 234.963 377.29 234.728C377.028 234.488 376.898 234.123 376.898 233.632V231H377.754V233.408C377.754 233.76 377.823 234.011 377.962 234.16C378.1 234.304 378.306 234.376 378.578 234.376C378.903 234.376 379.17 234.275 379.378 234.072C379.591 233.864 379.698 233.56 379.698 233.16V231H380.554ZM384.211 234.376C384.616 234.376 384.931 234.467 385.155 234.648C385.379 234.829 385.491 235.08 385.491 235.4C385.491 235.672 385.4 235.907 385.219 236.104C385.043 236.301 384.797 236.453 384.483 236.56C384.173 236.667 383.824 236.72 383.435 236.72C382.8 236.72 382.323 236.627 382.003 236.44C381.688 236.253 381.531 236.005 381.531 235.696C381.531 235.515 381.592 235.355 381.715 235.216C381.843 235.083 382.019 234.987 382.243 234.928C382.072 234.848 381.936 234.747 381.835 234.624C381.733 234.496 381.683 234.344 381.683 234.168C381.683 233.779 381.891 233.512 382.307 233.368C382.104 233.251 381.949 233.099 381.843 232.912C381.741 232.725 381.691 232.512 381.691 232.272C381.691 232.005 381.763 231.771 381.907 231.568C382.051 231.36 382.253 231.2 382.515 231.088C382.781 230.976 383.085 230.92 383.427 230.92C383.72 230.92 383.989 230.963 384.235 231.048C384.309 230.755 384.443 230.533 384.635 230.384C384.832 230.229 385.091 230.155 385.411 230.16L385.555 230.824C385.299 230.819 385.091 230.851 384.931 230.92C384.776 230.989 384.669 231.093 384.611 231.232C384.787 231.355 384.923 231.504 385.019 231.68C385.115 231.856 385.163 232.053 385.163 232.272C385.163 232.683 385.003 233.011 384.683 233.256C384.368 233.501 383.949 233.624 383.427 233.624C383.181 233.624 382.96 233.6 382.763 233.552C382.629 233.584 382.531 233.637 382.467 233.712C382.408 233.781 382.379 233.875 382.379 233.992C382.379 234.115 382.421 234.211 382.507 234.28C382.597 234.344 382.72 234.376 382.875 234.376H384.211ZM383.427 231.52C383.181 231.52 382.976 231.592 382.811 231.736C382.645 231.875 382.563 232.053 382.563 232.272C382.563 232.496 382.645 232.68 382.811 232.824C382.976 232.963 383.181 233.032 383.427 233.032C383.677 233.032 383.883 232.963 384.043 232.824C384.208 232.68 384.291 232.496 384.291 232.272C384.291 232.048 384.208 231.867 384.043 231.728C383.883 231.589 383.677 231.52 383.427 231.52ZM383.515 236.08C383.904 236.08 384.208 236.024 384.427 235.912C384.645 235.8 384.755 235.661 384.755 235.496C384.755 235.363 384.701 235.261 384.595 235.192C384.488 235.123 384.309 235.088 384.059 235.088H382.979C382.739 235.088 382.557 235.125 382.435 235.2C382.317 235.275 382.259 235.379 382.259 235.512C382.259 235.693 382.363 235.832 382.571 235.928C382.784 236.029 383.099 236.08 383.515 236.08ZM390.717 229.72V235H389.877V231.096C389.877 230.915 389.88 230.773 389.885 230.672C389.704 230.848 389.496 231 389.261 231.128C389.032 231.256 388.797 231.347 388.557 231.4L388.397 230.656C388.536 230.64 388.714 230.581 388.933 230.48C389.157 230.379 389.368 230.259 389.565 230.12C389.762 229.981 389.906 229.848 389.997 229.72H390.717ZM394.125 229.64C394.557 229.64 394.914 229.731 395.197 229.912C395.479 230.088 395.698 230.373 395.853 230.768L395.101 231.128C394.946 230.632 394.605 230.384 394.077 230.384C393.821 230.384 393.594 230.472 393.397 230.648C393.199 230.824 393.045 231.067 392.933 231.376C392.826 231.685 392.773 232.032 392.773 232.416V232.56H392.805C392.89 232.272 393.063 232.053 393.325 231.904C393.586 231.749 393.877 231.672 394.197 231.672C394.543 231.672 394.85 231.741 395.117 231.88C395.383 232.019 395.589 232.216 395.733 232.472C395.882 232.723 395.957 233.019 395.957 233.36C395.957 233.888 395.789 234.307 395.453 234.616C395.117 234.925 394.658 235.08 394.077 235.08C393.41 235.08 392.895 234.837 392.533 234.352C392.17 233.861 391.989 233.197 391.989 232.36C391.989 231.779 392.079 231.283 392.261 230.872C392.447 230.461 392.701 230.155 393.021 229.952C393.346 229.744 393.714 229.64 394.125 229.64ZM394.077 232.384C393.767 232.384 393.517 232.475 393.325 232.656C393.138 232.832 393.045 233.064 393.045 233.352C393.045 233.651 393.138 233.891 393.325 234.072C393.511 234.253 393.762 234.344 394.077 234.344C394.402 234.344 394.655 234.259 394.837 234.088C395.018 233.912 395.109 233.667 395.109 233.352C395.109 233.048 395.018 232.811 394.837 232.64C394.655 232.469 394.402 232.384 394.077 232.384Z" fill="black"/>
<defs>
<filter id="filter0_d" x="0" y="0" width="488" height="295" filterUnits="userSpaceOnUse" color-interpolation-filters="sRGB">
<feFlood flood-opacity="0" result="BackgroundImageFix"/>
<feColorMatrix in="SourceAlpha" type="matrix" values="0 0 0 0 0 0 0 0 0 0 0 0 0 0 0 0 0 0 127 0"/>
<feOffset dx="4" dy="4"/>
<feGaussianBlur stdDeviation="15"/>
<feColorMatrix type="matrix" values="0 0 0 0 0 0 0 0 0 0 0 0 0 0 0 0 0 0 0.16 0"/>
<feBlend mode="normal" in2="BackgroundImageFix" result="effect1_dropShadow"/>
<feBlend mode="normal" in="SourceGraphic" in2="effect1_dropShadow" result="shape"/>
</filter>
<linearGradient id="paint0_linear" x1="425.475" y1="61" x2="67.6174" y2="186.558" gradientUnits="userSpaceOnUse">
<stop stop-color="#3867D6"/>
<stop offset="1" stop-color="#75C6FF"/>
</linearGradient>
</defs>
</svg>
