<svg width="50" height="50" viewBox="0 0 50 50" fill="none" xmlns="http://www.w3.org/2000/svg">
<rect width="50" height="50" rx="10" fill="#10AB85"/>
<path d="M23 26C23.4295 26.5741 23.9774 27.0492 24.6066 27.3929C25.2357 27.7367 25.9315 27.9411 26.6467 27.9923C27.3618 28.0435 28.0796 27.9404 28.7513 27.6898C29.4231 27.4392 30.0331 27.0471 30.54 26.54L33.54 23.54C34.4508 22.597 34.9548 21.334 34.9434 20.023C34.932 18.712 34.4061 17.4579 33.4791 16.5309C32.5521 15.6039 31.298 15.078 29.987 15.0666C28.676 15.0552 27.413 15.5592 26.47 16.47L24.75 18.18" stroke="white" stroke-width="2" stroke-linecap="round" stroke-linejoin="round"/>
<path d="M27 24C26.5705 23.4259 26.0226 22.9508 25.3935 22.6071C24.7643 22.2633 24.0685 22.0589 23.3534 22.0077C22.6382 21.9564 21.9204 22.0596 21.2487 22.3102C20.5769 22.5608 19.9669 22.9529 19.46 23.46L16.46 26.46C15.5492 27.403 15.0452 28.666 15.0566 29.977C15.068 31.288 15.5939 32.542 16.5209 33.4691C17.4479 34.3961 18.702 34.922 20.013 34.9334C21.324 34.9448 22.587 34.4408 23.53 33.53L25.24 31.82" stroke="white" stroke-width="2" stroke-linecap="round" stroke-linejoin="round"/>
</svg>
