<svg width="1344" height="500" viewBox="0 0 1344 500" fill="none" xmlns="http://www.w3.org/2000/svg">
<rect width="500" height="500" rx="50" fill="black"/>
<rect x="100" y="100" width="125" height="125" fill="white"/>
<circle cx="337.5" cy="162.5" r="62.5" fill="white"/>
<rect x="275" y="275" width="125" height="125" fill="white"/>
<circle cx="162.5" cy="337.5" r="62.5" fill="white"/>
<path d="M683.33 147.364H642.861L714.551 351H760.091L831.881 147.364H791.312L738.415 307.648H736.327L683.33 147.364ZM884.928 354.082C908.891 354.082 923.209 342.847 929.771 330.02H930.964V351H965.567V248.784C965.567 208.415 932.655 196.284 903.521 196.284C871.405 196.284 846.746 210.602 838.791 238.443L872.399 243.216C875.979 232.776 886.121 223.827 903.72 223.827C920.425 223.827 929.572 232.378 929.572 247.392V247.989C929.572 258.33 918.734 258.827 891.788 261.71C862.158 264.892 833.82 273.741 833.82 308.145C833.82 338.173 855.794 354.082 884.928 354.082ZM894.274 327.634C879.26 327.634 868.521 320.773 868.521 307.548C868.521 293.727 880.553 287.96 896.661 285.673C906.107 284.381 924.999 281.994 929.672 278.216V296.213C929.672 313.216 915.95 327.634 894.274 327.634ZM1001.76 351H1037.75V261.213C1037.75 241.824 1052.37 228.102 1072.16 228.102C1078.22 228.102 1085.78 229.196 1088.86 230.19V197.08C1085.58 196.483 1079.91 196.085 1075.94 196.085C1058.44 196.085 1043.82 206.028 1038.25 223.727H1036.66V198.273H1001.76V351ZM1148.77 147.364H1112.78V351H1148.77V147.364ZM1242.46 353.685C1268.71 353.685 1280.54 338.074 1286.21 326.938H1288.4V351H1323.79V147.364H1287.7V223.528H1286.21C1280.74 212.491 1269.5 196.284 1242.56 196.284C1207.26 196.284 1179.52 223.926 1179.52 274.835C1179.52 325.148 1206.47 353.685 1242.46 353.685ZM1252.5 324.153C1228.74 324.153 1216.21 303.273 1216.21 274.636C1216.21 246.199 1228.54 225.815 1252.5 225.815C1275.67 225.815 1288.4 245.006 1288.4 274.636C1288.4 304.267 1275.47 324.153 1252.5 324.153Z" fill="black"/>
</svg>
