<svg width="500" height="500" viewBox="0 0 500 500" fill="none" xmlns="http://www.w3.org/2000/svg">
<rect width="500" height="500" rx="50" fill="black"/>
<path d="M160.625 342.5C157.395 342.468 154.28 341.299 151.825 339.2C137.718 328.098 126.255 313.999 118.265 297.924C110.275 281.849 105.957 264.198 105.625 246.25C105.957 228.302 110.275 210.651 118.265 194.576C126.255 178.501 137.718 164.402 151.825 153.3C153.156 151.893 154.769 150.783 156.559 150.042C158.349 149.302 160.275 148.948 162.211 149.004C164.147 149.059 166.05 149.524 167.794 150.366C169.538 151.208 171.085 152.409 172.332 153.891C173.58 155.373 174.501 157.101 175.034 158.963C175.567 160.825 175.701 162.779 175.426 164.697C175.152 166.614 174.475 168.452 173.441 170.089C172.407 171.727 171.038 173.128 169.425 174.2C158.451 182.804 149.509 193.721 143.235 206.174C136.961 218.628 133.509 232.311 133.125 246.25C133.509 260.189 136.961 273.872 143.235 286.326C149.509 298.779 158.451 309.696 169.425 318.3C172.196 320.628 173.938 323.954 174.273 327.558C174.608 331.162 173.508 334.752 171.212 337.55C169.92 339.102 168.301 340.35 166.471 341.206C164.641 342.061 162.645 342.503 160.625 342.5V342.5Z" fill="white"/>
<path d="M250 191.25C254.645 191.321 259.264 191.968 263.75 193.175V136.25C263.75 132.603 262.301 129.106 259.723 126.527C257.144 123.949 253.647 122.5 250 122.5C246.353 122.5 242.856 123.949 240.277 126.527C237.699 129.106 236.25 132.603 236.25 136.25V193.175C240.736 191.968 245.355 191.321 250 191.25Z" fill="white"/>
<path d="M250 301.25C245.355 301.179 240.736 300.532 236.25 299.325V370C236.25 373.647 237.699 377.144 240.277 379.723C242.856 382.301 246.353 383.75 250 383.75C253.647 383.75 257.144 382.301 259.723 379.723C262.301 377.144 263.75 373.647 263.75 370V299.325C259.264 300.532 254.645 301.179 250 301.25Z" fill="white"/>
<path d="M305 315C302.98 315.003 300.984 314.561 299.154 313.706C297.324 312.85 295.705 311.602 294.412 310.05C292.117 307.252 291.017 303.662 291.352 300.058C291.686 296.454 293.428 293.128 296.2 290.8C302.995 285.482 308.537 278.734 312.434 271.035C316.331 263.336 318.487 254.875 318.75 246.25C318.487 237.625 316.331 229.164 312.434 221.465C308.537 213.766 302.995 207.018 296.2 201.7C294.586 200.628 293.218 199.227 292.184 197.589C291.15 195.952 290.473 194.114 290.199 192.197C289.924 190.279 290.058 188.325 290.591 186.463C291.124 184.601 292.045 182.873 293.292 181.391C294.54 179.909 296.087 178.708 297.831 177.866C299.575 177.024 301.478 176.559 303.414 176.504C305.35 176.448 307.276 176.802 309.066 177.542C310.856 178.283 312.469 179.393 313.8 180.8C323.721 188.623 331.778 198.554 337.391 209.873C343.003 221.192 346.029 233.618 346.25 246.25C346.029 258.882 343.003 271.308 337.391 282.627C331.778 293.946 323.721 303.877 313.8 311.7C311.345 313.799 308.23 314.968 305 315V315Z" fill="white"/>
<path d="M195 315C191.77 314.968 188.655 313.799 186.2 311.7C176.279 303.877 168.221 293.946 162.609 282.627C156.997 271.308 153.971 258.882 153.75 246.25C153.971 233.618 156.997 221.192 162.609 209.873C168.221 198.554 176.279 188.623 186.2 180.8C187.531 179.393 189.144 178.283 190.934 177.542C192.724 176.802 194.65 176.448 196.586 176.504C198.522 176.559 200.425 177.024 202.169 177.866C203.913 178.708 205.46 179.909 206.707 181.391C207.955 182.873 208.876 184.601 209.409 186.463C209.942 188.325 210.076 190.279 209.801 192.197C209.527 194.114 208.85 195.952 207.816 197.589C206.782 199.227 205.413 200.628 203.8 201.7C197.005 207.018 191.463 213.766 187.566 221.465C183.669 229.164 181.513 237.625 181.25 246.25C181.513 254.875 183.669 263.336 187.566 271.035C191.463 278.734 197.005 285.482 203.8 290.8C206.571 293.128 208.313 296.454 208.648 300.058C208.983 303.662 207.883 307.252 205.588 310.05C204.295 311.602 202.676 312.85 200.846 313.706C199.016 314.561 197.02 315.003 195 315V315Z" fill="white"/>
<path d="M339.375 342.5C337.355 342.503 335.359 342.061 333.529 341.206C331.699 340.35 330.08 339.102 328.787 337.55C326.492 334.752 325.392 331.162 325.727 327.558C326.061 323.954 327.803 320.628 330.575 318.3C341.548 309.696 350.491 298.779 356.765 286.326C363.039 273.872 366.491 260.189 366.875 246.25C366.491 232.311 363.039 218.628 356.765 206.174C350.491 193.721 341.548 182.804 330.575 174.2C328.962 173.128 327.593 171.727 326.559 170.089C325.525 168.452 324.848 166.614 324.574 164.697C324.299 162.779 324.433 160.825 324.966 158.963C325.499 157.101 326.42 155.373 327.667 153.891C328.915 152.409 330.462 151.208 332.206 150.366C333.95 149.524 335.853 149.059 337.789 149.004C339.725 148.948 341.651 149.302 343.441 150.042C345.231 150.783 346.844 151.893 348.175 153.3C362.282 164.402 373.745 178.501 381.735 194.576C389.725 210.651 394.042 228.302 394.375 246.25C394.042 264.198 389.725 281.849 381.735 297.924C373.745 313.999 362.282 328.098 348.175 339.2C345.72 341.299 342.605 342.468 339.375 342.5V342.5Z" fill="white"/>
<path d="M250 260C247.281 260 244.622 259.194 242.361 257.683C240.1 256.172 238.337 254.024 237.297 251.512C236.256 248.999 235.984 246.235 236.514 243.568C237.045 240.9 238.354 238.45 240.277 236.527C242.2 234.604 244.65 233.295 247.318 232.764C249.985 232.234 252.749 232.506 255.262 233.547C257.774 234.587 259.922 236.35 261.433 238.611C262.944 240.872 263.75 243.531 263.75 246.25C263.75 249.897 262.301 253.394 259.723 255.973C257.144 258.551 253.647 260 250 260Z" fill="white"/>
</svg>
